<?xml version="1.0"?>

<svg version="1.1" id="Layer_1" xmlns="http://www.w3.org/2000/svg" xmlns:xlink="http://www.w3.org/1999/xlink" x="0px" y="0px" viewBox="0 0 841.89 595.28" style="enable-background:new 0 0 841.89 595.28;" xml:space="preserve">

<g>
&#x9;<path class="st0" d="M309.98,128.97"></path>
&#x9;<path class="st1" d="M310.33,30.21c0,0-104.42,14.97-107.55,135.05l18.8-0.7c0,0,1.04-33.41,88.41-36.89L310.33,30.21z"></path>
&#x9;<polygon points="361.15,27.34 370.54,28.73 369.85,128.4 360.8,127.93 &#x9;"></polygon>
&#x9;<path class="st1" d="M382.03,30.21c0,0,104.07,16.01,107.9,136.09l-18.45-1.74c0,0,1.39-32.02-89.1-37.94L382.03,30.21z"></path>
&#x9;<path d="M196.86,173.18l29.88-3.07c0,0-3.77,22.34,4.58,33.83l-34.46,2.31V173.18z"></path>
&#x9;<path d="M465.68,171.09c0,0,28.42,1.86,29.93,1.86l0.12,34.23c0,0-30.63-3.71-34.34-3.94&#xA;&#x9;&#x9;C461.39,203.23,469.51,186.75,465.68,171.09z"></path>
&#x9;<polygon class="st2" points="204.99,213.64 230.19,211.14 232.48,318.79 208.43,327.55 &#x9;"></polygon>
&#x9;<polygon class="st2" points="465.35,208.84 489.28,211.35 483.79,325.82 462.85,311.98 &#x9;"></polygon>
&#x9;<path class="st3" d="M231.67,182.92c0,0-2.09-19.84,10.79-28.02s29.76-11.83,48.38-12.7s79.18-1.04,79.18-1.04&#xA;&#x9;&#x9;s44.9-1.74,64.91,6.27c20.01,8.01,26.45,15.49,26.45,36.89c0,26.99-25.06,43.51-34.63,45.6c0,0-22.45,7.48-39.16-5.39&#xA;&#x9;&#x9;c-16.71-12.88-16.36-30.11-38.11-33.07c0,0-15.84-3.83-32.2,18.8s-27.61,22.75-51.21,19.67&#xA;&#x9;&#x9;C247.46,227.48,233.31,200.14,231.67,182.92z"></path>
&#x9;<path class="st0" d="M244.02,163.95c0,0,16.84-10.37,33.94-13.05c17.75-2.78,30.8-2.44,43.86-1.57c8.99,0.6,15.14,1.96,15.14,1.96&#xA;&#x9;&#x9;l0.52,35.45c0.68-0.22-13.63,4.4-19.67,7.14c-3.62,1.64-5.39,1.91-6.96,5.39s-4.52,17.05-15.31,20.88&#xA;&#x9;&#x9;c-10.79,3.83-27.87,5.54-40.2-4.7c-10.27-8.53-13.05-22.1-13.57-28.89C241.28,180.33,241.59,168.48,244.02,163.95z"></path>
&#x9;<path class="st0" d="M448.81,164.27c0,0-16.84-10.37-33.92-13.05c-17.74-2.78-30.79-2.44-43.83-1.57&#xA;&#x9;&#x9;c-8.99,0.6-15.13,1.96-15.13,1.96l-0.52,35.45c-0.68-0.22,13.62,4.4,19.66,7.14c3.62,1.64,5.39,1.91,6.96,5.39&#xA;&#x9;&#x9;c1.57,3.48,4.52,17.05,15.31,20.88c10.78,3.83,27.86,5.54,40.18-4.7c10.26-8.53,13.05-22.1,13.57-28.89&#xA;&#x9;&#x9;C451.55,180.65,451.24,168.8,448.81,164.27z"></path>
&#x9;<path class="st3" d="M248.31,167.66c0,0,14.81-8.91,29.83-11.21c15.6-2.39,27.07-3.61,38.55-2.86c7.9,0.51,14.83,1.69,14.83,1.69&#xA;&#x9;&#x9;l0.46,28.94c0.6-0.19-13.5,3.78-18.8,6.13c-3.18,1.41-6.26,4.68-7.64,7.67s-2.46,13.13-11.94,16.42&#xA;&#x9;&#x9;c-9.48,3.29-24.5,4.76-35.33-4.04c-9.02-7.32-11.47-18.98-11.93-24.81C245.9,180.21,246.17,171.55,248.31,167.66z"></path>
&#x9;<path class="st3" d="M443.48,166.52c0,0-14.65-7.39-29.52-9.69c-15.44-2.39-26.8-3.61-38.15-2.86c-7.82,0.51-14.67,1.69-14.67,1.69&#xA;&#x9;&#x9;l-0.45,27.42c-0.59-0.19,10.32,3.78,15.58,6.13c3.15,1.41,9.23,4.68,10.59,7.67c1.36,2.99,3.95,14.65,13.34,17.94&#xA;&#x9;&#x9;c9.39,3.29,22.73,4.76,33.46-4.04c8.93-7.32,11.36-18.98,11.81-24.81C445.87,180.58,445.6,170.41,443.48,166.52z"></path>
&#x9;<path class="st4" d="M264.18,166.32c-0.05,0.03-0.09,0.05-0.14,0.07c-1.05,0.38-10.51,4.35-10.62,8.44&#xA;&#x9;&#x9;c-0.12,4.29,0.64,14.36,1.45,17.72c0.81,3.36,1.49,5.81,2.29-1.97c1.02-9.86,1.88-13.81,7.33-17.05c5.45-3.25,13.2-6.27,15.67-6.96&#xA;&#x9;&#x9;c2.49-0.7,4.67-4.79-1.51-4.29C270.64,162.91,264.73,165.92,264.18,166.32z"></path>
&#x9;<path class="st4" d="M428.9,165.9c0.05,0.03,0.09,0.05,0.15,0.07c1.11,0.38,11.08,4.35,11.2,8.44c0.12,4.29-0.67,14.36-1.53,17.72&#xA;&#x9;&#x9;c-0.86,3.36-1.57,5.81-2.42-1.97c-1.07-9.86-1.98-13.81-7.73-17.05s-13.93-6.27-16.53-6.96c-2.63-0.7-4.93-4.79,1.59-4.29&#xA;&#x9;&#x9;C422.09,162.5,428.32,165.51,428.9,165.9z"></path>
&#x9;<polygon points="331.03,27.01 321.63,28.4 322.33,128.08 331.38,127.6 &#x9;"></polygon>
</g>
<g>
&#x9;<path d="M235.56,389.3c-0.95,6.74-3.04,13.2-6.28,19.37c-3.24,6.18-7.23,11.83-11.98,16.97c-4.75,5.14-9.94,9.58-15.58,13.32&#xA;&#x9;&#x9;c-5.64,3.74-11.28,6.43-16.92,8.07c2.54,1.52,4.9,3.53,7.08,6.03c2.17,2.5,3.94,5.83,5.31,10c4.33,12.5,9.39,22.8,15.19,30.88&#xA;&#x9;&#x9;c5.8,8.08,12.82,13.15,21.07,15.19c1.03,0.2,1.89,0.51,2.59,0.95c0.58,0.44,1.11,0.99,1.58,1.66c0.47,0.67,0.67,1.52,0.58,2.54&#xA;&#x9;&#x9;c-0.19,1.48-1.45,3.03-3.79,4.63c-2.34,1.6-5.3,2.62-8.87,3.06c-3.57,0.44-7.45-0.11-11.65-1.64c-4.2-1.53-8.18-4.63-11.95-9.31&#xA;&#x9;&#x9;c-2.7-3.11-5.09-6.97-7.15-11.57c-2.06-4.61-3.84-9.05-5.32-13.33c-1.48-4.28-2.64-8-3.47-11.16c-0.83-3.16-1.25-4.85-1.25-5.08&#xA;&#x9;&#x9;c0-0.11-0.03-0.2-0.09-0.25c-0.06-0.05-0.09-0.19-0.1-0.42c-1.14-4.29-2.78-7.74-4.9-10.36c-2.12-2.61-4.42-4.57-6.9-5.86&#xA;&#x9;&#x9;c-2.48-1.3-5.04-2.08-7.66-2.34c-2.63-0.27-5.01-0.26-7.16,0.03c-3.75,12.28-6.26,22.3-7.52,30.07&#xA;&#x9;&#x9;c-1.26,7.77-1.72,13.92-1.36,18.46c0.35,4.54,1.3,7.81,2.83,9.82c1.53,2,3.22,3.41,5.06,4.21c1.84,0.8,3.56,1.29,5.16,1.48&#xA;&#x9;&#x9;c1.6,0.18,2.69,0.78,3.29,1.78c0.95,1.57,0.85,2.88-0.32,3.93c-1.16,1.06-2.37,1.83-3.6,2.32c-0.9,0.25-1.81,0.42-2.72,0.5&#xA;&#x9;&#x9;c-0.91,0.08-1.76,0.08-2.56-0.01c-0.91-0.09-1.77-0.18-2.57-0.27c-4.93-1.34-8.81-3.79-11.64-7.35c-2.83-3.56-4.8-7.83-5.9-12.8&#xA;&#x9;&#x9;c-1.11-4.97-1.49-10.56-1.15-16.77c0.34-6.21,1.18-12.68,2.53-19.43c1.35-6.75,3.06-13.56,5.14-20.45&#xA;&#x9;&#x9;c2.08-6.88,4.34-13.54,6.78-19.98c3.49-9.42,6.54-17.16,9.16-23.2c2.62-6.04,4.84-10.91,6.67-14.6c2.04-4.15,3.83-7.38,5.36-9.7&#xA;&#x9;&#x9;c0.98-1.5,2.14-2.79,3.48-3.85c1.11-0.94,2.48-1.72,4.11-2.33c1.63-0.61,3.42-0.78,5.36-0.49c2.05,0.28,3.72,0.86,5,1.74&#xA;&#x9;&#x9;c1.05,0.77,1.76,1.8,2.13,3.1c0.38,1.3-0.2,3.11-1.73,5.42l-0.83,0.88c-0.22,0.24-0.5,0.56-0.83,0.96c-0.33,0.41-0.66,0.73-1,0.97&#xA;&#x9;&#x9;c-0.33,0.35-1.13,1.25-2.4,2.71c-1.27,1.46-2.9,4.09-4.9,7.9c-2,3.81-4.44,9.14-7.32,15.98c-2.88,6.85-6.16,15.78-9.83,26.8&#xA;&#x9;&#x9;c4.13,1.25,9.24,0.85,15.32-1.2c6.08-2.05,13.12-6.59,21.12-13.64c5.33-4.81,9.65-9.79,12.98-14.95c3.32-5.15,5.89-9.92,7.7-14.29&#xA;&#x9;&#x9;c2.13-5.06,3.7-10.05,4.7-14.97c0.79-4.34,0.98-7.82,0.56-10.42c-0.41-2.6-1.1-4.58-2.04-5.91c-1.07-1.56-2.46-2.66-4.19-3.3&#xA;&#x9;&#x9;c-3.35-1.72-8.28-2.21-14.8-1.46c-6.52,0.75-13.77,2.72-21.76,5.9c-7.99,3.18-16.2,7.53-24.63,13.06&#xA;&#x9;&#x9;c-8.43,5.53-16.18,12.2-23.24,20.01c-6.29,6.89-11.01,13.22-14.14,18.99c-3.14,5.78-5.44,10.84-6.91,15.21&#xA;&#x9;&#x9;c-1.68,5.05-2.52,9.62-2.52,13.72c-0.29,1.83-0.76,3.38-1.41,4.65c-0.54,1.04-1.4,1.77-2.58,2.2c-1.18,0.43-2.7-0.01-4.56-1.32&#xA;&#x9;&#x9;c-1.97-1.31-3.38-3.75-4.21-7.3c-0.84-3.56-0.87-7.82-0.1-12.79c0.77-4.97,2.46-10.48,5.08-16.52c2.62-6.04,6.34-12.26,11.16-18.65&#xA;&#x9;&#x9;c3.62-4.76,7.98-9.63,13.07-14.61c5.09-4.98,10.62-9.68,16.58-14.11c5.96-4.43,12.22-8.36,18.78-11.79&#xA;&#x9;&#x9;c6.56-3.42,13.11-5.97,19.66-7.63c6.55-1.66,12.9-2.24,19.06-1.73c6.16,0.51,11.9,2.51,17.23,6c3.82,2.4,7.2,5.43,10.15,9.1&#xA;&#x9;&#x9;c2.48,3.12,4.57,7.04,6.3,11.77C235.96,377.18,236.4,382.79,235.56,389.3z M145.9,373.55c6.91-4.97,13.57-9.02,19.96-12.16&#xA;&#x9;&#x9;c6.4-3.13,12.13-5.63,17.19-7.47c5.85-2.21,11.32-3.84,16.41-4.89c-9.41,1.17-18,3.18-25.76,6.01&#xA;&#x9;&#x9;c-7.77,2.83-14.81,6.21-21.13,10.14c-6.32,3.93-11.91,8.18-16.79,12.75c-4.88,4.57-9.13,9.13-12.75,13.66&#xA;&#x9;&#x9;c-8.57,10.71-15.18,22.55-19.82,35.53c3.11-6.57,6.8-13.04,11.06-19.42c3.6-5.56,8.01-11.4,13.24-17.52&#xA;&#x9;&#x9;C132.74,384.07,138.87,378.53,145.9,373.55z M152.43,436.49c0.32-0.92,0.63-1.81,0.95-2.67c0.32-0.86,0.63-1.75,0.95-2.67&#xA;&#x9;&#x9;c0.1-0.57,0.36-1.43,0.78-2.58l0.95-2.58c0.21-0.46,0.34-0.89,0.39-1.29c0.04-0.4,0.17-0.83,0.39-1.29&#xA;&#x9;&#x9;c0.21-0.46,0.53-1.26,0.96-2.42c0.41-1.49,0.99-3.1,1.74-4.83c0.09-0.69,0.36-1.43,0.79-2.24c0.21-0.46,0.37-0.86,0.48-1.21&#xA;&#x9;&#x9;c0.1-0.34,0.21-0.69,0.31-1.03c0.21-0.57,0.53-1.32,0.96-2.24c0.1-0.46,0.36-1.14,0.79-2.07c0.53-1.49,1.06-2.87,1.59-4.14&#xA;&#x9;&#x9;c0.53-1.27,1.06-2.53,1.6-3.8l1.43-3.62l1.45-3.11c0.85-2.07,1.68-3.91,2.49-5.53c0.81-1.61,1.48-2.94,2.02-3.98&#xA;&#x9;&#x9;c0.43-0.92,0.86-1.79,1.29-2.59l0.16-0.35c0-0.11,0.05-0.17,0.17-0.17c0.11-0.12,0.16-0.23,0.16-0.35&#xA;&#x9;&#x9;c-0.77,1.16-1.47,2.29-2.12,3.39c-0.65,1.1-1.3,2.23-1.95,3.38l-0.98,1.56c-0.22,0.35-0.35,0.67-0.4,0.95&#xA;&#x9;&#x9;c-0.05,0.29-0.18,0.55-0.4,0.78c-0.22,0.24-0.39,0.52-0.49,0.87c-0.1,0.34-0.27,0.63-0.49,0.87c-0.22,0.24-0.36,0.5-0.4,0.78&#xA;&#x9;&#x9;c-0.05,0.29-0.18,0.6-0.4,0.95c-1.19,2.2-2.32,4.39-3.4,6.58c-1.08,2.19-2.09,4.44-3.05,6.74c-2.04,4.38-3.88,8.72-5.52,13.04&#xA;&#x9;&#x9;c-1.64,4.31-3.2,8.53-4.68,12.67l-0.94,3.1c-0.43,0.92-0.8,1.9-1.11,2.93l-0.94,3.1c-0.22,0.46-0.37,0.92-0.47,1.38&#xA;&#x9;&#x9;c-0.1,0.46-0.26,0.98-0.47,1.55c-0.22,0.46-0.37,0.92-0.47,1.38c-0.1,0.46-0.26,0.97-0.47,1.55c-0.43,1.04-0.69,1.96-0.78,2.75&#xA;&#x9;&#x9;c-0.21,0.69-0.37,1.15-0.47,1.38c-0.21,0.69-0.31,1.2-0.3,1.54c-0.43,1.04-0.69,1.96-0.78,2.75c-0.52,1.83-0.98,3.64-1.38,5.41&#xA;&#x9;&#x9;c-0.41,1.78-0.75,3.52-1.05,5.23c-0.41,1.72-0.76,3.41-1.05,5.06c-0.29,1.66-0.53,3.29-0.72,4.88c0.02,0.68-0.07,1.48-0.27,2.4&#xA;&#x9;&#x9;c0.01,0.46-0.01,0.85-0.05,1.2c-0.05,0.34-0.06,0.74-0.05,1.2c0.01,0.23-0.02,0.4-0.07,0.51c-0.06,0.11-0.08,0.29-0.07,0.51&#xA;&#x9;&#x9;l0.03,1.19c-0.11,0.23-0.15,0.57-0.14,1.03l0.03,1.02c-0.27,2.62-0.25,5.35,0.06,8.19c0.04,1.25,0.12,2.44,0.27,3.58&#xA;&#x9;&#x9;c0.14,1.13,0.34,2.21,0.6,3.22c0.4,2.26,0.97,4.13,1.69,5.58c0.25,0.9,0.59,1.69,1,2.36c0.42,0.67,0.8,1.28,1.16,1.84&#xA;&#x9;&#x9;c0.47,0.67,0.83,1.11,1.06,1.33c0.12,0.22,0.29,0.45,0.53,0.67l0.18,0.17l0.35,0.33c0.12,0.11,0.18,0.19,0.18,0.25&#xA;&#x9;&#x9;c0,0.06,0.06,0.14,0.18,0.25c0.11,0,0.29,0.1,0.52,0.33l0.35,0.16l0.35,0.33c0.12,0.11,0.23,0.16,0.35,0.16l0.17,0.17&#xA;&#x9;&#x9;c-1.51-1.21-2.69-2.54-3.52-4c-0.48-0.78-0.87-1.6-1.18-2.44c-0.31-0.84-0.59-1.72-0.84-2.62c-0.5-1.69-0.89-3.5-1.18-5.43&#xA;&#x9;&#x9;c-0.02-0.68-0.09-1.13-0.21-1.36l-0.02-0.85l-0.02-0.68c-0.02-0.57-0.09-1.02-0.21-1.36l-0.04-1.53c-0.01-0.23,0.01-0.46,0.07-0.69&#xA;&#x9;&#x9;c0.05-0.23,0.07-0.46,0.07-0.68l-0.04-1.53c-0.01-0.46-0.03-0.91-0.04-1.36c-0.01-0.45,0.03-0.97,0.13-1.54&#xA;&#x9;&#x9;c-0.02-0.57,0.03-1.02,0.13-1.37c-0.02-0.68,0.02-1.19,0.13-1.54c-0.02-0.57,0-1.05,0.04-1.45c0.04-0.4,0.12-0.89,0.22-1.46&#xA;&#x9;&#x9;c0.17-1.94,0.4-3.91,0.69-5.91c0.29-2,0.68-3.97,1.2-5.92c0.8-4,1.68-7.92,2.66-11.76c0.97-3.84,2.03-7.59,3.18-11.26&#xA;&#x9;&#x9;c0.1-0.57,0.2-1.06,0.3-1.46c0.1-0.4,0.26-0.83,0.48-1.29c0.21-0.57,0.37-1.06,0.47-1.46c0.1-0.4,0.2-0.89,0.3-1.46&#xA;&#x9;&#x9;C151.44,439.88,152.02,438.1,152.43,436.49z M188.29,468.08c-0.01-0.34-0.14-0.74-0.38-1.18c-1.11-3.15-2.38-5.85-3.81-8.08&#xA;&#x9;&#x9;c-0.6-1.01-1.22-1.9-1.87-2.68c-0.65-0.78-1.21-1.39-1.67-1.83c-0.24-0.22-0.41-0.33-0.52-0.33l-0.35-0.33l-0.18-0.17&#xA;&#x9;&#x9;c-0.12-0.11-0.23-0.16-0.35-0.16l-0.35-0.33l-0.17,0c0.46,0.22,0.81,0.43,1.04,0.65l0.35,0.33l0.35,0.33&#xA;&#x9;&#x9;c0.23,0.22,0.35,0.39,0.36,0.5l0.35,0.33c0.12,0.23,0.35,0.5,0.71,0.83c0.94,1.23,1.66,2.46,2.15,3.69&#xA;&#x9;&#x9;c1.32,2.58,2.36,5.05,3.11,7.42c0.01,0.23,0.04,0.4,0.1,0.51c0.06,0.11,0.09,0.28,0.1,0.51c0.12,0.23,0.18,0.39,0.19,0.51&#xA;&#x9;&#x9;c0,0.11,0.06,0.28,0.18,0.51c0.12,0.34,0.31,0.96,0.56,1.86c0.24,0.56,0.4,1.16,0.48,1.78c0.07,0.63,0.23,1.27,0.48,1.95&#xA;&#x9;&#x9;c0.38,1.24,0.75,2.43,1.12,3.55c0.37,1.13,0.69,2.31,0.95,3.56c0.75,2.25,1.52,4.45,2.32,6.59c0.8,2.14,1.62,4.16,2.47,6.07&#xA;&#x9;&#x9;c1.82,4.04,3.68,7.46,5.57,10.25c2.02,3.01,4.08,5.4,6.17,7.16c1.98,1.65,3.95,2.96,5.91,3.93l0.18,0.17&#xA;&#x9;&#x9;c0.23-0.01,0.34,0.05,0.35,0.16c0.23-0.01,0.37,0.02,0.43,0.07c0.06,0.05,0.14,0.08,0.26,0.08l1.04,0.48&#xA;&#x9;&#x9;c0.23-0.01,0.4,0.05,0.52,0.16l0.51-0.01c0.12,0.11,0.23,0.17,0.35,0.16c0.23-0.01,0.4,0.04,0.52,0.16l0.51-0.01&#xA;&#x9;&#x9;c0.11,0.11,0.29,0.16,0.52,0.16l0.34-0.01c-2.18-0.51-4.02-1.2-5.52-2.06c-0.47-0.33-0.9-0.63-1.3-0.9&#xA;&#x9;&#x9;c-0.41-0.27-0.84-0.57-1.3-0.9c-0.47-0.33-0.87-0.66-1.22-0.99c-0.35-0.33-0.76-0.66-1.22-0.99c-1.52-1.55-2.9-3.22-4.15-5&#xA;&#x9;&#x9;c-1.24-1.79-2.4-3.63-3.48-5.53c-2.15-3.81-3.97-7.8-5.45-11.96c-0.85-1.91-1.62-3.85-2.29-5.82c-0.68-1.97-1.33-3.92-1.95-5.83&#xA;&#x9;&#x9;c-0.25-0.9-0.54-1.8-0.84-2.71c-0.31-0.9-0.59-1.8-0.84-2.71c-0.13-0.56-0.26-1.04-0.38-1.44c-0.13-0.39-0.25-0.82-0.38-1.27&#xA;&#x9;&#x9;c-0.12-0.22-0.21-0.42-0.27-0.59C188.5,468.5,188.41,468.3,188.29,468.08z M198.82,436.05c7.51-3.73,13.47-8.34,17.87-13.81&#xA;&#x9;&#x9;c4.4-5.47,7.72-10.79,9.96-15.97c2.67-5.99,4.44-12.18,5.28-18.57c-2.05,8.13-4.92,15.21-8.62,21.23&#xA;&#x9;&#x9;c-3.7,6.02-7.37,11.07-11.01,15.15C208,428.74,203.51,432.74,198.82,436.05z"></path>
&#x9;<path d="M231.46,431.9c0.32-0.92,0.63-1.86,0.94-2.84c0.31-0.97,0.57-1.81,0.78-2.5c0.32-0.8,0.64-1.61,0.96-2.42&#xA;&#x9;&#x9;c0.21-0.69,0.64-1.5,1.3-2.42c0.66-0.93,1.61-1.24,2.87-0.93c0.69,0.1,1.6,0.44,2.76,1.03c1.15,0.59,2.23,1.45,3.23,2.55&#xA;&#x9;&#x9;c1,1.11,1.69,2.57,2.08,4.38c0.39,1.81,0.22,3.98-0.5,6.5c-0.74,2.18-1.5,4.37-2.29,6.55c-0.79,2.19-1.56,4.31-2.3,6.38&#xA;&#x9;&#x9;c-2.2,6.66-3.54,11.81-4,15.47c-0.47,3.65-0.24,5.81,0.69,6.46l0.17,0c0.46,0.22,0.81,0.55,1.05,0.99c0.48,0.9,0.5,1.81,0.08,2.73&#xA;&#x9;&#x9;c-0.33,0.58-0.91,1.11-1.75,1.58c-0.84,0.48-1.77,0.82-2.79,1.02c-1.02,0.2-2.07,0.2-3.16,0c-1.09-0.2-2.09-0.62-3.02-1.28&#xA;&#x9;&#x9;c-0.46-0.21-0.9-0.57-1.31-1.07c-0.41-0.5-0.74-1.03-0.98-1.59c-0.36-0.56-0.66-1.17-0.9-1.85c-0.37-0.9-0.65-1.8-0.84-2.71&#xA;&#x9;&#x9;c-0.2-0.9-0.36-1.7-0.49-2.38c-0.13-0.79-0.15-1.53-0.06-2.22c-0.05-1.93,0.16-4.21,0.66-6.84c0.49-2.63,1.1-5.35,1.82-8.16&#xA;&#x9;&#x9;c0.72-2.81,1.52-5.64,2.41-8.51C229.75,436.95,230.62,434.31,231.46,431.9z M232.88,439.71c0.83-2.86,1.58-5.33,2.27-7.4&#xA;&#x9;&#x9;c0.68-2.07,1.22-4.07,1.62-6.02c-2.03,4.72-3.72,9.26-5.08,13.62c-1.15,3.67-2.15,7.51-3,11.51c-0.86,4.01-1.02,7.37-0.49,10.08&#xA;&#x9;&#x9;c0.39-2.17,0.78-4.46,1.17-6.86c0.4-2.06,0.87-4.37,1.43-6.95C231.35,445.12,232.04,442.46,232.88,439.71z M256.75,396.56&#xA;&#x9;&#x9;c1.15,0.54,1.91,1.2,2.27,1.99c0.36,0.79,0.44,1.58,0.24,2.38c-0.1,0.57-0.37,1.2-0.8,1.9c-0.22,0.35-0.44,0.64-0.66,0.87&#xA;&#x9;&#x9;c-1.54,1.86-2.85,3.81-3.93,5.83c-1.08,2.02-1.89,3.55-2.43,4.59c-0.22,0.35-0.52,0.87-0.9,1.56c-0.38,0.69-0.84,1.36-1.39,2&#xA;&#x9;&#x9;c-0.55,0.64-1.16,1.17-1.83,1.59c-0.67,0.42-1.41,0.53-2.21,0.32c-2.19-1.07-3.76-2.28-4.71-3.62c-0.35-0.44-0.52-1.12-0.48-2.03&#xA;&#x9;&#x9;c0.03-0.91,0.12-1.82,0.26-2.74c0.15-0.91,0.32-1.74,0.53-2.49c0.21-0.74,0.36-1.23,0.47-1.46c0.2-0.91,0.38-1.6,0.54-2.06&#xA;&#x9;&#x9;c0.16-0.46,0.34-0.92,0.56-1.38c0.63-1.95,1.55-3.51,2.77-4.68c1.22-1.17,2.53-2.03,3.94-2.58c1.41-0.55,2.79-0.79,4.16-0.71&#xA;&#x9;&#x9;C254.51,395.88,255.71,396.13,256.75,396.56z M242.19,412.66c0.62-2.06,1.4-3.93,2.32-5.61c0.92-1.67,1.82-3.15,2.69-4.43&#xA;&#x9;&#x9;c0.98-1.39,1.97-2.67,2.96-3.84c-1.59,0.27-2.87,1.16-3.85,2.67c-0.98,1.51-1.79,3.06-2.43,4.67&#xA;&#x9;&#x9;C243.14,408.2,242.57,410.38,242.19,412.66z"></path>
&#x9;<path d="M335.08,354.62c1.49,0.53,2.45,1.38,2.89,2.56c0.43,1.18,0.49,2.23,0.17,3.15c-0.32,0.81-0.75,1.5-1.31,2.08&#xA;&#x9;&#x9;c-0.33,0.35-0.61,0.59-0.83,0.71c-1.44,1.52-2.67,3.06-3.71,4.62c-1.04,1.56-1.99,2.99-2.87,4.26c-0.98,1.51-1.79,3.07-2.43,4.67&#xA;&#x9;&#x9;c-2.48,5.08-5.04,10.8-7.71,17.19c-2.67,6.39-5.27,13.03-7.8,19.92c-2.54,6.89-4.99,13.85-7.35,20.85&#xA;&#x9;&#x9;c-2.36,7-4.54,13.66-6.52,19.97c-1.05,3.33-1.89,6.59-2.54,9.8c-0.65,3.2-1.11,6.12-1.38,8.74c-0.27,2.62-0.32,4.79-0.16,6.49&#xA;&#x9;&#x9;c0.16,1.7,0.53,2.71,1.11,3.04c0.92,0.43,1.66,0.61,2.23,0.53c0.57-0.07,1.07-0.26,1.52-0.55c0.44-0.3,0.92-0.6,1.42-0.89&#xA;&#x9;&#x9;c0.5-0.3,1.1-0.46,1.78-0.48c1.13-0.03,1.83,0.35,2.08,1.14c0.12,0.45,0.14,0.85,0.03,1.19c-0.42,1.26-1.05,2.25-1.88,2.95&#xA;&#x9;&#x9;c-0.83,0.71-1.7,1.24-2.6,1.61c-1.13,0.48-2.31,0.75-3.56,0.78c-1.59,0.04-2.87-0.03-3.84-0.23c-0.97-0.2-1.92-0.57-2.85-1.11&#xA;&#x9;&#x9;c-1.84-0.86-3.3-2.04-4.36-3.55c-1.07-1.5-1.85-3.16-2.36-4.97c-0.51-1.81-0.81-3.7-0.93-5.69c-0.11-1.99-0.08-3.84,0.1-5.55&#xA;&#x9;&#x9;c0.08-1.14,0.19-2.19,0.34-3.17c0.14-0.97,0.32-1.86,0.52-2.66c0.2-0.91,0.4-1.72,0.61-2.41c0.2-0.8,0.41-1.57,0.62-2.32&#xA;&#x9;&#x9;c0.21-0.74,0.41-1.52,0.62-2.32c-1.87,2.44-3.87,4.88-6.02,7.33c-2.15,2.45-4.31,4.64-6.47,6.58c-2.16,1.94-4.23,3.53-6.18,4.78&#xA;&#x9;&#x9;c-1.96,1.25-3.73,1.9-5.32,1.94c-3.19-0.02-5.84-1.46-7.97-4.3c-2.13-2.84-2.97-6.43-2.52-10.76c0.36-3.31,1.22-7.03,2.59-11.16&#xA;&#x9;&#x9;c1.36-4.13,3.06-8.36,5.1-12.68c2.04-4.32,4.28-8.53,6.73-12.64c2.44-4.1,4.96-7.7,7.55-10.79c2.58-3.08,5.14-5.49,7.65-7.21&#xA;&#x9;&#x9;c2.51-1.72,4.79-2.44,6.85-2.15c3.08,0.48,5.59,1.55,7.51,3.2c1.92,1.65,3.36,3.43,4.33,5.34c2.22-6.09,4.39-11.92,6.51-17.5&#xA;&#x9;&#x9;c2.12-5.57,4.08-10.58,5.89-15.01c1.81-4.43,3.33-8.17,4.55-11.22c1.22-3.05,2.1-5.15,2.64-6.3c0.96-2.3,2.19-4.07,3.69-5.31&#xA;&#x9;&#x9;c1.5-1.24,3.1-2.08,4.79-2.52c1.69-0.45,3.34-0.63,4.93-0.57C332.56,354.12,333.93,354.31,335.08,354.62z M256.59,470.43&#xA;&#x9;&#x9;c-0.76-2.59-0.96-5.78-0.61-9.54c0.25-3.19,1.08-7.08,2.49-11.67c1.41-4.59,3.9-9.95,7.48-16.07c4.23-7.51,7.99-13.33,11.28-17.46&#xA;&#x9;&#x9;c3.3-4.13,6.58-6.52,9.86-7.18c-0.69-0.43-1.5-0.64-2.41-0.62c-0.8,0.02-1.78,0.33-2.96,0.93c-1.18,0.6-2.54,1.72-4.09,3.36&#xA;&#x9;&#x9;c-0.99,1.05-2.51,2.94-4.53,5.67c-2.03,2.73-4.18,5.92-6.47,9.56c-2.29,3.65-4.48,7.58-6.58,11.78c-2.1,4.21-3.75,8.29-4.95,12.25&#xA;&#x9;&#x9;c-1.2,3.96-1.78,7.62-1.74,10.97C253.42,465.78,254.49,468.45,256.59,470.43z M264.77,463.89c0.8,0.09,2.22-0.77,4.28-2.59&#xA;&#x9;&#x9;c2.05-1.82,4.35-4.16,6.88-7.02c2.54-2.86,5.09-6,7.67-9.43c2.57-3.43,4.73-6.7,6.46-9.82c0.84-2.3,1.66-4.65,2.45-7.06&#xA;&#x9;&#x9;c0.79-2.41,1.6-4.76,2.45-7.06c-0.24-0.56-0.37-1.15-0.39-1.78c-0.02-0.62-0.32-1.16-0.9-1.6c-0.35-0.33-0.9-0.51-1.64-0.55&#xA;&#x9;&#x9;c-0.74-0.04-1.64,0.3-2.7,1.01c-1.06,0.71-2.37,1.89-3.91,3.52c-1.55,1.64-3.36,3.91-5.44,6.8c-2.08,2.9-4.23,6.38-6.45,10.42&#xA;&#x9;&#x9;c-2.22,4.05-4.13,7.91-5.73,11.59c-1.6,3.69-2.74,6.84-3.4,9.48C263.73,462.45,263.86,463.81,264.77,463.89z M299.83,424.36&#xA;&#x9;&#x9;c3.17-8.73,6.23-17.12,9.19-25.17c1.27-3.33,2.57-6.75,3.89-10.26c1.32-3.5,2.62-6.9,3.9-10.17c1.27-3.28,2.49-6.3,3.67-9.06&#xA;&#x9;&#x9;c1.17-2.76,2.19-5.06,3.05-6.91c-2.95,4.29-5.82,9.43-8.61,15.42c-2.47,5.19-5.08,11.6-7.82,19.24&#xA;&#x9;&#x9;C304.35,405.1,301.93,414.06,299.83,424.36z"></path>
&#x9;<path d="M356.17,443.94c1.25,0.08,1.99,1.17,2.22,3.26c0.23,2.1-0.02,4.35-0.75,6.76c-0.84,2.53-2.05,5.03-3.63,7.52&#xA;&#x9;&#x9;c-1.58,2.49-3.57,4.71-5.96,6.65c-2.39,1.94-5.19,3.47-8.4,4.58c-3.21,1.11-6.81,1.55-10.8,1.33c-3.76-0.24-7.09-1.28-9.98-3.13&#xA;&#x9;&#x9;c-2.43-1.52-4.63-3.88-6.59-7.07c-1.97-3.19-2.75-7.8-2.35-13.84c0.23-3.87,1.03-7.82,2.4-11.84c1.15-3.44,2.96-7.16,5.4-11.15&#xA;&#x9;&#x9;c2.45-3.99,5.89-7.81,10.34-11.46c2.11-1.65,4.29-3.08,6.53-4.28c1.91-0.96,3.99-1.73,6.25-2.31c2.26-0.57,4.37-0.43,6.32,0.42&#xA;&#x9;&#x9;c3.45,1.38,5.56,3.54,6.32,6.48c0.76,2.94,0.67,5.61-0.29,8.03c-0.54,1.27-1.26,2.79-2.18,4.58c-0.92,1.79-2.34,3.68-4.28,5.66&#xA;&#x9;&#x9;c-1.94,1.99-4.58,4-7.94,6.02c-3.36,2.03-7.68,3.86-12.98,5.48c-1.26,3.68-2.02,7-2.28,9.96c-0.16,2.62,0.11,5.09,0.8,7.4&#xA;&#x9;&#x9;c0.69,2.31,2.47,3.88,5.33,4.71c2.75,0.83,5.34,0.76,7.76-0.22c2.42-0.98,4.59-2.4,6.53-4.28c1.94-1.87,3.58-4.02,4.94-6.45&#xA;&#x9;&#x9;c1.35-2.43,2.34-4.67,2.97-6.74c0.21-0.46,0.45-1.04,0.72-1.73c0.26-0.69,0.58-1.38,0.97-2.08c0.38-0.69,0.79-1.24,1.23-1.65&#xA;&#x9;&#x9;C355.26,444.16,355.71,443.95,356.17,443.94z M313.65,448.88c0.93-3.32,2.2-6.66,3.81-10c1.4-2.88,3.16-5.95,5.29-9.19&#xA;&#x9;&#x9;c2.13-3.24,4.75-6.22,7.86-8.92c4.22-3.64,7.71-5.9,10.47-6.78c2.76-0.87,4.89-1.04,6.38-0.52c-0.47-0.44-0.99-0.88-1.57-1.32&#xA;&#x9;&#x9;c-1.27-0.76-2.99-0.94-5.13-0.54c-1.36,0.27-3.29,1.23-5.81,2.89c-2.51,1.66-5.15,4.01-7.91,7.04c-2.76,3.04-5.35,6.83-7.79,11.39&#xA;&#x9;&#x9;C316.83,437.5,314.96,442.81,313.65,448.88z M343.95,427.9c0.66-0.93,1.06-1.85,1.2-2.76c0.15-0.91,0.01-1.65-0.4-2.21&#xA;&#x9;&#x9;c-0.42-0.56-1.13-0.82-2.15-0.79c-1.02,0.03-2.26,0.52-3.71,1.47c-1.45,0.95-2.87,2.21-4.24,3.79c-1.38,1.58-2.56,3.12-3.54,4.62&#xA;&#x9;&#x9;c-0.98,1.51-1.77,2.81-2.37,3.91c-0.6,1.1-0.78,1.64-0.55,1.64c0.91-0.03,2.12-0.34,3.64-0.95c1.52-0.61,3.03-1.42,4.54-2.43&#xA;&#x9;&#x9;c1.51-1.01,2.96-2.07,4.35-3.19C342.1,429.86,343.18,428.83,343.95,427.9z"></path>
&#x9;<path d="M380.96,403.15c0.8,0.09,1.54,0.1,2.22,0.02c0.68-0.08,1.25-0.18,1.7-0.3c0.45-0.13,0.9-0.2,1.36-0.21&#xA;&#x9;&#x9;c0.22-0.12,0.76-0.28,1.61-0.47c0.85-0.2,1.73-0.19,2.65,0.01c0.8,0.21,1.58,0.53,2.33,0.96c0.75,0.43,1.42,1.21,2.03,2.33&#xA;&#x9;&#x9;c0.83,1.34,1.27,2.75,1.31,4.23c0.04,1.48-0.09,2.9-0.39,4.28c-0.3,1.37-0.67,2.61-1.09,3.7c-0.42,1.09-0.69,1.81-0.79,2.16&#xA;&#x9;&#x9;c-1.82,4.26-3.99,8.93-6.52,14c-2.53,5.08-4.75,9.97-6.67,14.69c-1.92,4.72-3.14,8.9-3.66,12.56c-0.52,3.66,0.37,6.19,2.69,7.6&#xA;&#x9;&#x9;c0.12,0.11,0.29,0.22,0.52,0.33c0.35,0.33,0.53,0.73,0.54,1.18c-0.1,0.46-0.4,0.95-0.9,1.47c-0.5,0.53-1.25,0.92-2.27,1.17&#xA;&#x9;&#x9;c-1.81,0.39-3.69,0.13-5.65-0.78c-1.96-0.91-3.6-2.43-4.9-4.55c-1.31-2.12-2.13-4.86-2.45-8.21c-0.32-3.34,0.31-7.26,1.89-11.74&#xA;&#x9;&#x9;c1.36-4.02,2.99-7.96,4.87-11.82c1.88-3.86,3.72-7.38,5.51-10.56c1.79-3.18,3.39-5.9,4.8-8.15c1.41-2.26,2.34-3.85,2.77-4.77&#xA;&#x9;&#x9;c0.65-1.27,0.65-2.26,0-2.99c-0.65-0.72-1.93-1-3.86-0.83c-1.13,0.15-2.1,0.06-2.91-0.26c-2.51,3.71-5.06,7.2-7.64,10.45&#xA;&#x9;&#x9;c-2.58,3.26-4.97,6.22-7.17,8.9c-0.22,0.24-0.56,0.44-1.01,0.63c-0.45,0.18-0.7-0.46-0.74-1.94c-0.04-1.25,0.21-2.76,0.73-4.54&#xA;&#x9;&#x9;c0.52-1.78,0.94-3.12,1.25-4.04c0-0.11,0.05-0.23,0.16-0.35l0.32-0.69c1.21-1.28,2.48-2.74,3.8-4.37c1.32-1.63,2.75-3.43,4.28-5.41&#xA;&#x9;&#x9;c-2.42-1.07-3.89-2.79-4.41-5.17c-0.52-2.37-0.45-4.99,0.21-7.85c0.66-2.86,1.77-5.74,3.34-8.62c1.57-2.89,3.32-5.35,5.25-7.4&#xA;&#x9;&#x9;c1.93-2.04,3.88-3.46,5.85-4.26c1.97-0.79,3.66-0.47,5.06,0.97c1.41,1.44,2.22,3.21,2.45,5.31c0.23,2.1,0.01,4.41-0.66,6.93&#xA;&#x9;&#x9;c-0.67,2.52-1.71,5.17-3.1,7.93C384.27,397.43,382.7,400.26,380.96,403.15z M374.77,438.13c1.17-2.87,2.45-5.75,3.85-8.64&#xA;&#x9;&#x9;c1.4-2.88,2.85-5.88,4.36-8.99c-2.63,3.6-5.03,7.42-7.19,11.46c-1.84,3.46-3.58,7.38-5.22,11.75c-1.64,4.37-2.68,8.78-3.13,13.22&#xA;&#x9;&#x9;c0.63-1.84,1.31-3.79,2.05-5.86c0.63-1.72,1.4-3.71,2.31-5.95C372.71,442.88,373.7,440.55,374.77,438.13z M376.77,399.69&#xA;&#x9;&#x9;c1.53-2.32,2.86-4.57,3.99-6.76c1.13-2.19,1.9-4.2,2.3-6.04c0.5-2.29,0.39-3.25-0.34-2.89c-0.73,0.36-1.58,1.38-2.56,3.06&#xA;&#x9;&#x9;c-0.98,1.68-1.89,3.72-2.73,6.13C376.59,395.6,376.37,397.77,376.77,399.69z"></path>
&#x9;<path d="M454.77,388.64c2.52,0.61,4.41,2.09,5.67,4.45c1.26,2.35,1.96,5.26,2.12,8.73c0.15,3.47-0.22,7.37-1.12,11.72&#xA;&#x9;&#x9;c-0.9,4.35-2.17,8.76-3.81,13.24c-1.64,4.48-3.62,8.89-5.94,13.22c-2.33,4.33-4.89,8.24-7.69,11.73s-5.76,6.45-8.88,8.86&#xA;&#x9;&#x9;c-3.12,2.42-6.32,3.96-9.59,4.62c-1.93,0.28-3.64,0.22-5.12-0.2c-1.26-0.31-2.44-0.9-3.55-1.78c-1.11-0.88-1.69-2.4-1.75-4.56&#xA;&#x9;&#x9;c-0.04-1.25,0.1-2.39,0.42-3.42c0.2-0.91,0.58-1.72,1.13-2.42c0.55-0.7,1.45-0.95,2.71-0.76c1.03,0.2,2.6-0.41,4.73-1.84&#xA;&#x9;&#x9;c2.12-1.42,4.5-3.76,7.14-7.02c2.64-3.26,5.39-7.51,8.26-12.77c2.87-5.25,5.56-11.61,8.08-19.08c0.52-1.61,0.88-3.04,1.07-4.29&#xA;&#x9;&#x9;c0.2-1.03,0.23-1.97,0.09-2.82c-0.14-0.85-0.66-1.32-1.58-1.41c-0.8,0.02-2.41,1.26-4.84,3.72c-2.43,2.46-5.27,5.84-8.5,10.13&#xA;&#x9;&#x9;c-3.24,4.3-6.68,9.31-10.33,15.05c-3.65,5.73-7.18,11.77-10.58,18.12c-3.4,6.35-6.49,12.87-9.26,19.54&#xA;&#x9;&#x9;c-2.77,6.67-4.81,13.1-6.11,19.28c-0.19,1.6-0.36,3.56-0.52,5.9c-0.16,2.33-0.1,4.75,0.2,7.25c0.12,0.34,0.19,0.73,0.2,1.19&#xA;&#x9;&#x9;c0.01,0.45-0.08,1.25-0.27,2.4c-0.31,0.92-1,1.73-2.06,2.45c-1.06,0.71-2.28,0.8-3.66,0.27c-1.15-0.42-2.33-1.04-3.55-1.86&#xA;&#x9;&#x9;c-1.22-0.82-2.33-1.9-3.33-3.23c-1-1.34-1.76-2.96-2.27-4.88c-0.51-1.92-0.63-4.19-0.36-6.81c0.27-2.4,1.04-6.6,2.29-12.6&#xA;&#x9;&#x9;c1.26-6.01,3.05-12.99,5.39-20.96c2.34-7.97,5.23-16.47,8.67-25.49c3.44-9.02,7.49-17.81,12.14-26.36&#xA;&#x9;&#x9;c0.76-1.27,1.52-2.49,2.29-3.65c0.66-0.93,1.37-1.83,2.14-2.7c0.77-0.88,1.61-1.44,2.51-1.69c1.12-0.49,2.37-0.78,3.73-0.87&#xA;&#x9;&#x9;c1.36-0.09,2.53,0.07,3.51,0.5c0.98,0.43,1.51,1.21,1.6,2.34c0.09,1.14-0.52,2.69-1.83,4.66c-2.07,3.13-4.71,8.58-7.9,16.34&#xA;&#x9;&#x9;c-3.19,7.77-6.41,17.1-9.63,27.99c1.94-3.92,4.12-8.19,6.55-12.81c2.43-4.62,5-9.24,7.72-13.86c2.71-4.62,5.55-9.08,8.5-13.37&#xA;&#x9;&#x9;c2.95-4.29,5.89-8.01,8.81-11.17c2.92-3.15,5.79-5.56,8.58-7.23C449.76,388.72,452.36,388.14,454.77,388.64z M392,462.56&#xA;&#x9;&#x9;c2.19-7.11,4.61-14.23,7.25-21.36c2.22-6.09,4.77-12.61,7.64-19.58c2.88-6.96,5.88-13.33,9.02-19.11c-3.07,4.18-6,9.21-8.79,15.09&#xA;&#x9;&#x9;c-2.48,5.08-5.09,11.32-7.84,18.73C396.54,443.75,394.11,452.49,392,462.56z M443.56,445.59c4.94-6.28,8.5-12.32,10.67-18.13&#xA;&#x9;&#x9;c2.17-5.8,3.59-10.99,4.26-15.56c0.76-5.37,0.79-10.37,0.09-15.02c-0.37,7.29-1.32,13.88-2.86,19.79&#xA;&#x9;&#x9;c-1.54,5.9-3.22,11.04-5.03,15.41C448.56,437.15,446.18,441.65,443.56,445.59z"></path>
&#x9;<path d="M510.58,426.32c0.17,2.16-0.05,4.18-0.68,6.07c-0.63,1.89-1.53,4.17-2.71,6.82c-2.46,5.64-3.99,9.95-4.59,12.92&#xA;&#x9;&#x9;c-0.6,2.98-0.44,4.73,0.49,5.28c0.11,0,0.26,0.02,0.43,0.07c0.17,0.05,0.31,0.08,0.43,0.07c0.23-0.01,0.54,0.01,0.94,0.06&#xA;&#x9;&#x9;c0.4,0.05,0.89,0.29,1.47,0.73c0.58,0.33,0.93,0.8,1.06,1.42c0.13,0.62-0.08,1.34-0.62,2.15c-2.22,2-4.59,2.77-7.1,2.33&#xA;&#x9;&#x9;c-2.52-0.44-4.59-1.43-6.22-2.98c-1.41-1.55-2.26-3.41-2.54-5.56c-0.29-2.15-0.45-3.85-0.48-5.1c-1.99,2.22-4.06,4.44-6.21,6.66&#xA;&#x9;&#x9;c-2.16,2.22-4.26,4.21-6.32,5.98c-2.06,1.76-4.07,3.18-6.02,4.26c-1.96,1.08-3.68,1.64-5.16,1.68c-3.3,0.09-5.89-1.12-7.78-3.62&#xA;&#x9;&#x9;c-1.89-2.51-2.77-5.69-2.66-9.57c0.01-3.64,0.67-7.53,1.98-11.66c1.31-4.13,3.04-8.22,5.2-12.26c2.16-4.04,4.58-7.89,7.27-11.55&#xA;&#x9;&#x9;c2.68-3.66,5.44-6.83,8.26-9.53c2.82-2.69,5.58-4.76,8.27-6.2c2.69-1.44,5.06-2.02,7.12-1.73c3.31,0.48,5.96,1.54,7.94,3.19&#xA;&#x9;&#x9;c1.98,1.65,3.36,3.38,4.15,5.17c0.79,1.8,1.09,3.41,0.9,4.84c-0.19,1.43-0.79,2.21-1.81,2.35c-0.91,0.14-1.53,0.07-1.88-0.2&#xA;&#x9;&#x9;c-0.35-0.27-0.59-0.61-0.71-1c-0.13-0.39-0.25-0.79-0.37-1.18c-0.13-0.39-0.36-0.76-0.71-1.09c-0.35-0.33-0.9-0.49-1.63-0.47&#xA;&#x9;&#x9;c-0.74,0.02-1.67,0.33-2.79,0.93c-1.12,0.6-2.46,1.63-4.01,3.1c-1.55,1.47-3.37,3.48-5.46,6.04c-2.09,2.56-4.3,5.75-6.64,9.57&#xA;&#x9;&#x9;c-2.34,3.82-4.4,7.54-6.17,11.18s-3.08,6.74-3.92,9.32c-0.84,2.58-0.8,3.92,0.11,4.01c0.57,0.1,1.58-0.38,3.03-1.45&#xA;&#x9;&#x9;c1.45-1.06,3.11-2.5,5-4.32c1.88-1.81,3.9-3.89,6.05-6.22c2.15-2.33,4.25-4.72,6.28-7.17c2.04-2.45,3.84-4.86,5.43-7.23&#xA;&#x9;&#x9;c1.58-2.37,2.8-4.49,3.66-6.33c0.1-0.57,0.11-1.05,0.04-1.45c-0.07-0.39-0.11-0.88-0.13-1.45c-0.12-0.22-0.13-0.51-0.02-0.85&#xA;&#x9;&#x9;c-0.02-0.57,0.37-1.09,1.15-1.57c0.78-0.36,1.66-0.58,2.63-0.67c0.96-0.08,1.88,0.09,2.74,0.52c0.87,0.43,1.59,1.12,2.19,2.07&#xA;&#x9;&#x9;C510.05,423.63,510.43,424.84,510.58,426.32z M460.87,460.63c0.04-2.39,0.48-5.13,1.31-8.23c0.72-2.63,1.88-5.91,3.48-9.82&#xA;&#x9;&#x9;c1.6-3.91,3.91-8.47,6.95-13.67c3.04-5.2,5.97-9.21,8.79-12.02c2.82-2.81,5.35-4.87,7.59-6.18c2.57-1.55,4.99-2.47,7.26-2.76&#xA;&#x9;&#x9;c-0.24-0.45-1.1-0.74-2.58-0.87c-1.48-0.13-3.4,0.41-5.76,1.61c-2.35,1.2-5.05,3.3-8.1,6.28c-3.05,2.98-6.19,7.37-9.44,13.14&#xA;&#x9;&#x9;c-3.37,5.78-5.73,10.71-7.09,14.79c-1.37,4.08-2.24,7.43-2.62,10.05C460.29,456.04,460.36,458.6,460.87,460.63z"></path>
&#x9;<path d="M558.32,364.25c-0.44,0.58-0.88,1.22-1.31,1.91c-0.33,0.58-0.68,1.24-1.05,1.99c-0.38,0.75-0.73,1.53-1.04,2.33&#xA;&#x9;&#x9;c5.67-0.5,12.12-0.62,19.35-0.37c7.23,0.25,15.59,1.33,25.08,3.22c1.14,0.2,2.17,0.51,3.1,0.94c0.8,0.32,1.5,0.73,2.08,1.22&#xA;&#x9;&#x9;c0.58,0.5,0.82,1.03,0.73,1.6c-0.1,0.46-0.4,0.86-0.9,1.22c-0.5,0.36-1.33,0.44-2.47,0.24c-4.79-0.32-9.97-0.46-15.54-0.42&#xA;&#x9;&#x9;c-4.78,0.02-10.34,0.26-16.7,0.72c-6.36,0.46-13.16,1.42-20.39,2.87c-4.39,9.68-8.25,19.28-11.56,28.81&#xA;&#x9;&#x9;c-3.32,9.54-6.06,18.25-8.23,26.16c-2.17,7.91-3.77,14.55-4.82,19.92c-1.04,5.38-1.55,8.75-1.51,10.11&#xA;&#x9;&#x9;c0.07,2.39-0.26,3.96-0.98,4.72c-0.72,0.76-1.54,1.04-2.45,0.84c-0.92-0.2-1.9-0.74-2.95-1.62c-1.05-0.88-1.93-1.77-2.63-2.66&#xA;&#x9;&#x9;c-0.59-0.67-0.95-1.56-1.1-2.7c-0.14-1.13-0.18-2.32-0.1-3.58c0.08-1.37,0.26-2.85,0.56-4.45c0.87-5.6,2.04-11.51,3.51-17.76&#xA;&#x9;&#x9;c1.47-6.24,3.15-12.48,5.02-18.74c1.87-6.25,3.83-12.39,5.88-18.42c2.05-6.03,4.02-11.68,5.92-16.97c-0.79,0.25-1.58,0.5-2.37,0.75&#xA;&#x9;&#x9;c-0.79,0.25-1.64,0.5-2.54,0.75c-2.14,0.63-4.01,1.02-5.6,1.18c-1.36,0.15-2.53,0.04-3.51-0.33c-0.98-0.37-1.32-1.3-1.02-2.79&#xA;&#x9;&#x9;c0.86-1.96,2.11-3.81,3.77-5.56c1.43-1.52,3.33-2.96,5.68-4.34c2.35-1.37,5.34-2.28,8.97-2.73c0.34-0.01,0.65-0.04,0.94-0.11&#xA;&#x9;&#x9;c0.28-0.06,0.54-0.1,0.76-0.11c1.59-4.02,2.95-7.39,4.07-10.09c1.12-2.7,1.94-4.69,2.48-5.96c0.96-2.3,2.22-4.07,3.78-5.31&#xA;&#x9;&#x9;c1.56-1.24,3.18-2.08,4.88-2.52c1.69-0.45,3.34-0.63,4.93-0.57c1.59,0.07,2.96,0.26,4.11,0.57c1.38,0.53,2.28,1.39,2.72,2.57&#xA;&#x9;&#x9;c0.43,1.18,0.49,2.23,0.17,3.15c-0.32,0.81-0.75,1.5-1.31,2.08c-0.33,0.35-0.61,0.59-0.83,0.71&#xA;&#x9;&#x9;C561.6,359.32,559.73,361.82,558.32,364.25z M523.64,429.7c1.14-4.01,2.23-7.8,3.26-11.35c1.04-3.55,2.11-7.05,3.2-10.5&#xA;&#x9;&#x9;c1.1-3.44,2.17-6.88,3.21-10.33c1.04-3.44,2.13-7.05,3.28-10.84c-3.4,8.63-6.46,17.18-9.18,25.68c-1.15,3.67-2.29,7.49-3.43,11.44&#xA;&#x9;&#x9;c-1.14,3.96-2.2,7.91-3.17,11.86c-0.97,3.95-1.77,7.84-2.4,11.67c-0.63,3.83-1.07,7.4-1.32,10.7c0.5-2.63,1.1-5.49,1.81-8.58&#xA;&#x9;&#x9;c0.49-2.63,1.15-5.66,1.96-9.1C521.68,436.92,522.61,433.38,523.64,429.7z M556.24,350.66c-1.94-0.06-3.46,0.35-4.57,1.24&#xA;&#x9;&#x9;c-1.11,0.88-1.94,1.79-2.48,2.71c-0.65,1.27-1.12,2.59-1.42,3.96c0.76-1.27,1.61-2.38,2.55-3.31c0.94-0.94,1.85-1.76,2.75-2.47&#xA;&#x9;&#x9;C554.05,351.97,555.11,351.26,556.24,350.66z"></path>
&#x9;<path d="M567.17,363.66c1.38-3.56,3.06-6.62,5.03-9.18c1.64-2.21,3.69-4.11,6.15-5.72c2.46-1.6,5.29-1.99,8.5-1.18&#xA;&#x9;&#x9;c1.26,0.31,2.47,0.96,3.64,1.95c0.93,0.89,1.79,2.08,2.57,3.6c0.78,1.51,1.21,3.52,1.28,6.02c-0.08,1.37-0.23,2.91-0.47,4.62&#xA;&#x9;&#x9;c-0.24,1.71-0.61,3.6-1.12,5.66c-1.03,3.78-2.57,7.89-4.6,12.33c-2.04,4.44-4.42,8.8-7.14,13.08c-2.73,4.29-5.74,8.29-9.05,12.03&#xA;&#x9;&#x9;c-3.31,3.73-6.8,6.79-10.49,9.16c-1.78,5.51-3.34,10.62-4.69,15.31c-1.35,4.7-2.48,8.94-3.4,12.72c1.73-3.23,3.82-6.9,6.26-11.01&#xA;&#x9;&#x9;c2.44-4.1,5.07-7.93,7.87-11.48c2.8-3.55,5.67-6.5,8.62-8.86c2.95-2.36,5.79-3.51,8.52-3.48c2.28,0.17,4.07,1.08,5.37,2.75&#xA;&#x9;&#x9;c1.06,1.45,1.7,3.71,1.9,6.77c0.2,3.07-0.7,7.53-2.7,13.38c-0.94,2.87-2.05,5.89-3.33,9.05c-1.28,3.17-2.39,6.18-3.33,9.05&#xA;&#x9;&#x9;c-2.2,6.77-3.53,11.99-4,15.64c-0.47,3.65-0.24,5.75,0.69,6.29c0.12,0.11,0.23,0.16,0.35,0.16c0.34-0.12,0.76-0.14,1.28-0.04&#xA;&#x9;&#x9;c0.51,0.1,1.06,0.42,1.65,0.98c0.47,0.44,0.79,0.97,0.98,1.59c0.19,0.62,0.01,1.39-0.53,2.32c-0.88,1.27-1.96,2.1-3.26,2.48&#xA;&#x9;&#x9;c-1.3,0.38-2.58,0.47-3.83,0.28c-1.26-0.19-2.46-0.59-3.62-1.18c-1.15-0.59-2.08-1.33-2.79-2.22c-0.94-1.11-1.58-2.49-1.91-4.13&#xA;&#x9;&#x9;c-0.33-1.64-0.52-3.2-0.56-4.68c-0.05-1.7,0.02-3.47,0.19-5.29c0.62-6.39,1.76-12.33,3.42-17.84c1.66-5.51,3.19-9.93,4.58-13.27&#xA;&#x9;&#x9;c1.38-3.34,2.34-5.84,2.86-7.5c0.52-1.66,0.55-2.77,0.08-3.33c-0.24-0.22-0.58-0.24-1.02-0.06c-0.45,0.18-0.9,0.45-1.34,0.81&#xA;&#x9;&#x9;c-0.44,0.47-1,1-1.66,1.58c-2.65,2.69-5.35,6.09-8.07,10.21c-2.73,4.12-5.23,8.17-7.51,12.15c-2.28,3.99-4.17,7.54-5.67,10.65&#xA;&#x9;&#x9;c-1.51,3.11-2.37,4.9-2.58,5.36c-0.31,1.03-0.84,1.64-1.57,1.84c-0.74,0.19-1.53,0.1-2.4-0.27c-0.86-0.37-1.71-0.92-2.52-1.64&#xA;&#x9;&#x9;c-0.82-0.71-1.52-1.46-2.11-2.24c-0.59-0.67-0.95-1.56-1.1-2.7c-0.14-1.13-0.18-2.32-0.1-3.58c0.08-1.37,0.26-2.85,0.56-4.45&#xA;&#x9;&#x9;c0.67-4.46,1.51-8.97,2.52-13.55c1.01-4.58,2.13-9.16,3.37-13.74c0.31-1.26,0.59-2.29,0.85-3.09c0.26-0.8,0.49-1.61,0.7-2.41&#xA;&#x9;&#x9;c1.56-5.27,3.18-10.41,4.86-15.41c1.68-4.99,3.34-9.7,4.98-14.13c1.64-4.42,3.23-8.54,4.77-12.33&#xA;&#x9;&#x9;C564.64,369.7,566,366.42,567.17,363.66z M571.46,364.39c-1.95,3.58-3.88,7.5-5.81,11.76c-1.6,3.69-3.28,7.88-5.02,12.59&#xA;&#x9;&#x9;c-1.74,4.71-3.17,9.7-4.27,14.96c1.8-4.71,3.66-9.37,5.58-13.97c1.59-4.02,3.27-8.28,5.02-12.76&#xA;&#x9;&#x9;C568.7,372.49,570.2,368.29,571.46,364.39z M580.14,369.61c-2.69,5.42-5.24,11.01-7.63,16.76c-2.4,5.76-4.65,11.56-6.76,17.42&#xA;&#x9;&#x9;c2.87-3.15,5.86-7.21,8.96-12.19c3.1-4.98,6.03-11.2,8.78-18.67c1.29-2.65,2.25-5.01,2.87-7.07c0.52-1.72,0.85-3.24,0.98-4.55&#xA;&#x9;&#x9;c0.13-1.31-0.3-1.67-1.31-1.07c-0.33,0.24-0.72,0.59-1.17,1.06c-1.53,2.32-2.67,4.23-3.42,5.73&#xA;&#x9;&#x9;C581,367.94,580.57,368.8,580.14,369.61z M584.28,432.45c-0.85,2.3-1.5,4.34-1.96,6.11c-0.46,1.78-0.79,3.29-0.98,4.55&#xA;&#x9;&#x9;c-0.3,1.49-0.49,2.8-0.57,3.94c0.82-3.09,1.93-6.37,3.31-9.82c1.38-3.45,2.64-7.13,3.79-11.02c0.51-1.95,0.78-3.52,0.81-4.71&#xA;&#x9;&#x9;c0.02-1.2-0.09-2.19-0.34-2.98c-0.25-0.9-0.61-1.57-1.08-2.02c0.3,2.61,0.17,5.03-0.39,7.26&#xA;&#x9;&#x9;C586.29,425.99,585.43,428.89,584.28,432.45z"></path>
</g>
</svg>