<svg xmlns="http://www.w3.org/2000/svg" xmlns:xlink="http://www.w3.org/1999/xlink" width="153.723" height="150.299" viewBox="0 0 153.723 150.299">
  <defs>
    <clipPath id="clip-path">
      <rect x="-2" y="-3" width="153.723" height="150.299" fill="none"></rect>
    </clipPath>
  </defs>
  <g id="Grupo_de_desplazamiento_33" data-name="Grupo de desplazamiento 33" transform="translate(2 3)" clip-path="url(#clip-path)" style="isolation: isolate">
    <g id="Riderpath" transform="translate(-96.556 -27.01)">
      <g id="Grupo_7406" data-name="Grupo 7406" transform="translate(127.496 26.01)">
        <path id="Trazado_7799" data-name="Trazado 7799" d="M309.98,128.97" transform="translate(-276.627 -98.908)" fill="#fff" stroke="#000" stroke-miterlimit="10" stroke-width="2"></path>
        <path id="Trazado_7800" data-name="Trazado 7800" d="M234.491,30.21S203.7,34.624,202.78,70.029l5.543-.206s.307-9.851,26.067-10.877Z" transform="translate(-201.035 -29.266)" fill="#b01630" stroke="#000" stroke-miterlimit="10" stroke-width="1"></path>
        <path id="Trazado_7801" data-name="Trazado 7801" d="M360.9,27.34l2.769.41-.2,29.387L360.8,57Z" transform="translate(-312.463 -27.243)"></path>
        <path id="Trazado_7802" data-name="Trazado 7802" d="M382.03,30.21s30.684,4.72,31.814,40.125l-5.44-.513s.41-9.441-26.271-11.186Z" transform="translate(-327.434 -29.266)" fill="#b01630" stroke="#000" stroke-miterlimit="10" stroke-width="1"></path>
        <path id="Trazado_7803" data-name="Trazado 7803" d="M196.86,171.015l8.81-.905s-1.112,6.587,1.35,9.975l-10.16.681v-9.751Z" transform="translate(-196.86 -127.918)"></path>
        <path id="Trazado_7804" data-name="Trazado 7804" d="M462.655,171.09s8.379.548,8.825.548l.035,10.093s-9.031-1.094-10.125-1.162C461.39,180.566,463.784,175.707,462.655,171.09Z" transform="translate(-383.395 -128.609)"></path>
        <path id="Trazado_7805" data-name="Trazado 7805" d="M204.99,211.877l7.43-.737.675,31.74L206,245.463Z" transform="translate(-202.593 -156.85)" fill="#b1252b" stroke="#000" stroke-miterlimit="10" stroke-width="1"></path>
        <path id="Trazado_7806" data-name="Trazado 7806" d="M463.587,208.84l7.056.74-1.619,33.751-6.174-4.081Z" transform="translate(-384.424 -155.228)" fill="#b1252b" stroke="#000" stroke-miterlimit="10" stroke-width="1"></path>
        <path id="Trazado_7807" data-name="Trazado 7807" d="M231.582,153.36s-.616-5.85,3.181-8.262,8.775-3.488,14.265-3.745,23.346-.307,23.346-.307,13.238-.513,19.138,1.849,7.8,4.567,7.8,10.877c0,7.958-7.389,12.829-10.211,13.445,0,0-6.619,2.205-11.546-1.589s-4.824-8.878-11.237-9.751c0,0-4.67-1.129-9.494,5.543s-8.141,6.708-15.1,5.8C236.237,166.5,232.065,158.437,231.582,153.36Z" transform="translate(-221.318 -107.391)" stroke="#fff" stroke-miterlimit="10" stroke-width="1.5"></path>
        <path id="Trazado_7808" data-name="Trazado 7808" d="M242.295,153.2a31.646,31.646,0,0,1,10.007-3.848,54.226,54.226,0,0,1,12.932-.463,33.013,33.013,0,0,1,4.464.578l.153,10.452c.2-.065-4.019,1.3-5.8,2.105-1.067.484-1.589.563-2.052,1.589s-1.333,5.027-4.514,6.156-8.217,1.633-11.853-1.386c-3.028-2.515-3.848-6.516-4-8.518C241.487,158.03,241.578,154.536,242.295,153.2Z" transform="translate(-228.39 -112.824)" fill="#fff" stroke="#000" stroke-miterlimit="10" stroke-width="2"></path>
        <path id="Trazado_7809" data-name="Trazado 7809" d="M382.932,153.52a31.653,31.653,0,0,0-10-3.848,54.157,54.157,0,0,0-12.923-.463,32.918,32.918,0,0,0-4.461.578l-.153,10.452c-.2-.065,4.016,1.3,5.8,2.105,1.067.484,1.589.563,2.052,1.589s1.333,5.027,4.514,6.156,8.214,1.633,11.847-1.386c3.025-2.515,3.848-6.516,4-8.518C383.74,158.35,383.648,154.856,382.932,153.52Z" transform="translate(-308.646 -113.05)" fill="#fff" stroke="#000" stroke-miterlimit="10" stroke-width="2"></path>
        <path id="Trazado_7810" data-name="Trazado 7810" d="M246.795,157.583a28.2,28.2,0,0,1,8.8-3.305,51.746,51.746,0,0,1,11.366-.843c2.329.15,4.373.5,4.373.5l.136,8.533c.177-.056-3.98,1.115-5.543,1.807a4.951,4.951,0,0,0-2.253,2.261c-.407.882-.725,3.871-3.52,4.841s-7.224,1.4-10.417-1.191a10.743,10.743,0,0,1-3.517-7.315C246.084,161.284,246.164,158.73,246.795,157.583Z" transform="translate(-231.625 -116.113)" stroke="#fff" stroke-miterlimit="10" stroke-width="1.5"></path>
        <path id="Trazado_7811" data-name="Trazado 7811" d="M385.084,157.515a33.893,33.893,0,0,0-8.7-2.857,50.7,50.7,0,0,0-11.248-.843c-2.306.15-4.325.5-4.325.5l-.133,8.085c-.174-.056,3.043,1.114,4.594,1.807.929.416,2.721,1.38,3.122,2.261s1.165,4.319,3.933,5.29,6.7,1.4,9.866-1.191a10.782,10.782,0,0,0,3.482-7.315C385.789,161.661,385.709,158.662,385.084,157.515Z" transform="translate(-312.369 -116.381)" stroke="#fff" stroke-miterlimit="10" stroke-width="1.5"></path>
        <path id="Trazado_7812" data-name="Trazado 7812" d="M256.584,163.441a.27.27,0,0,1-.041.021c-.31.112-3.1,1.283-3.131,2.488a31,31,0,0,0,.428,5.225c.239.991.439,1.713.675-.581.3-2.907.554-4.072,2.161-5.027a24.939,24.939,0,0,1,4.62-2.052c.734-.206,1.377-1.412-.445-1.265A10.932,10.932,0,0,0,256.584,163.441Z" transform="translate(-236.735 -122.367)" stroke="#fff" stroke-miterlimit="10" stroke-width="0.75"></path>
        <path id="Trazado_7813" data-name="Trazado 7813" d="M415.149,163.021a.2.2,0,0,0,.044.021c.327.112,3.267,1.283,3.3,2.488a29.451,29.451,0,0,1-.451,5.225c-.254.991-.463,1.713-.714-.581-.315-2.907-.584-4.072-2.279-5.027a27.355,27.355,0,0,0-4.874-2.052c-.775-.206-1.454-1.412.469-1.265A12.113,12.113,0,0,1,415.149,163.021Z" transform="translate(-346.733 -122.07)" stroke="#fff" stroke-miterlimit="10" stroke-width="0.75"></path>
        <path id="Trazado_7814" data-name="Trazado 7814" d="M324.4,27.01l-2.772.41.206,29.39,2.668-.142Z" transform="translate(-284.842 -27.01)"></path>
      </g>
      <g id="Grupo_7407" data-name="Grupo 7407" transform="translate(96.555 120.201)">
        <path id="Trazado_7815" data-name="Trazado 7815" d="M137.54,358.38a17.44,17.44,0,0,1-1.852,5.711,23.233,23.233,0,0,1-3.532,5,25.228,25.228,0,0,1-4.594,3.927,18.3,18.3,0,0,1-4.989,2.379,8.725,8.725,0,0,1,2.088,1.778,8.5,8.5,0,0,1,1.566,2.948,35.592,35.592,0,0,0,4.479,9.1,10.8,10.8,0,0,0,6.212,4.479,2.217,2.217,0,0,1,.764.28,2.178,2.178,0,0,1,.466.489,1.1,1.1,0,0,1,.171.749,2.236,2.236,0,0,1-1.117,1.365,5.839,5.839,0,0,1-2.615.9,7.382,7.382,0,0,1-3.435-.484,8.307,8.307,0,0,1-3.523-2.745,13.732,13.732,0,0,1-2.108-3.411q-.911-2.039-1.569-3.93t-1.023-3.29q-.367-1.4-.369-1.5a.094.094,0,0,0-.027-.074c-.018-.015-.027-.056-.029-.124a8.117,8.117,0,0,0-1.445-3.055,6.553,6.553,0,0,0-2.034-1.728,6.145,6.145,0,0,0-2.259-.69,8.975,8.975,0,0,0-2.111.009,70.5,70.5,0,0,0-2.217,8.866,24.063,24.063,0,0,0-.4,5.443,5.568,5.568,0,0,0,.834,2.9,3.848,3.848,0,0,0,1.492,1.241,5.457,5.457,0,0,0,1.521.436,1.2,1.2,0,0,1,.97.525.826.826,0,0,1-.094,1.159,3.509,3.509,0,0,1-1.061.684,4.464,4.464,0,0,1-.8.147,3.788,3.788,0,0,1-.755,0c-.268-.027-.522-.053-.758-.08a6.372,6.372,0,0,1-3.432-2.167,9.144,9.144,0,0,1-1.74-3.774,18.172,18.172,0,0,1-.339-4.945,40.517,40.517,0,0,1,.746-5.729q.6-2.985,1.515-6.03t2-5.891q1.544-4.166,2.7-6.84t1.967-4.3a27.106,27.106,0,0,1,1.58-2.86,4.739,4.739,0,0,1,1.026-1.135,4.057,4.057,0,0,1,1.212-.687,3.127,3.127,0,0,1,1.58-.145,3.387,3.387,0,0,1,1.474.513,1.663,1.663,0,0,1,.628.914,2.107,2.107,0,0,1-.51,1.6l-.245.259c-.065.071-.147.165-.245.283a1.48,1.48,0,0,1-.295.286c-.1.1-.333.369-.708.8a13.265,13.265,0,0,0-1.445,2.329q-.885,1.685-2.158,4.712t-2.9,7.9a7.488,7.488,0,0,0,4.517-.354,19.521,19.521,0,0,0,6.227-4.022,22.208,22.208,0,0,0,3.827-4.408,26.937,26.937,0,0,0,2.27-4.213,23.4,23.4,0,0,0,1.386-4.414,9.5,9.5,0,0,0,.165-3.072,4.185,4.185,0,0,0-.6-1.743,2.534,2.534,0,0,0-1.235-.973,7.84,7.84,0,0,0-4.364-.43,25.468,25.468,0,0,0-6.416,1.74,40.884,40.884,0,0,0-7.262,3.851,35.4,35.4,0,0,0-6.852,5.9,29.407,29.407,0,0,0-4.169,5.6,29.092,29.092,0,0,0-2.037,4.485,12.941,12.941,0,0,0-.743,4.045,4.584,4.584,0,0,1-.416,1.371,1.333,1.333,0,0,1-.761.649,1.533,1.533,0,0,1-1.344-.389,3.384,3.384,0,0,1-1.241-2.152,9.943,9.943,0,0,1-.029-3.771,20.182,20.182,0,0,1,1.5-4.871,27.208,27.208,0,0,1,3.29-5.5,39.784,39.784,0,0,1,3.854-4.308,47.459,47.459,0,0,1,4.889-4.16,41.509,41.509,0,0,1,5.537-3.476,26.772,26.772,0,0,1,5.8-2.25,17.041,17.041,0,0,1,5.62-.51,10.767,10.767,0,0,1,5.08,1.769,12.048,12.048,0,0,1,2.993,2.683,12.362,12.362,0,0,1,1.858,3.47A10.217,10.217,0,0,1,137.54,358.38ZM111.1,353.736a41.541,41.541,0,0,1,5.885-3.585,52.975,52.975,0,0,1,5.068-2.2,32.2,32.2,0,0,1,4.838-1.442,34.6,34.6,0,0,0-7.6,1.772,33.411,33.411,0,0,0-6.23,2.99,31.691,31.691,0,0,0-4.95,3.759,38.394,38.394,0,0,0-3.759,4.028,36.1,36.1,0,0,0-5.844,10.476,44.954,44.954,0,0,1,3.261-5.726,49.162,49.162,0,0,1,3.9-5.166A29.644,29.644,0,0,1,111.1,353.736Zm1.925,18.558c.094-.271.186-.534.28-.787s.186-.516.28-.787a5,5,0,0,1,.23-.761l.28-.761a1.317,1.317,0,0,0,.115-.38,1.157,1.157,0,0,1,.115-.38c.062-.136.156-.371.283-.714a10.844,10.844,0,0,1,.513-1.424,1.98,1.98,0,0,1,.233-.66,3.16,3.16,0,0,0,.142-.357c.029-.1.062-.2.091-.3.062-.168.156-.389.283-.66a3.315,3.315,0,0,1,.233-.61q.234-.659.469-1.221c.156-.374.313-.746.472-1.12l.422-1.067.428-.917q.376-.915.734-1.63c.239-.475.436-.867.6-1.173.127-.271.254-.528.38-.764l.047-.1a.044.044,0,0,1,.05-.05.15.15,0,0,0,.047-.1c-.227.342-.433.675-.625,1s-.383.657-.575,1l-.289.46a.807.807,0,0,0-.118.28.432.432,0,0,1-.118.23.626.626,0,0,0-.144.257.647.647,0,0,1-.144.257.432.432,0,0,0-.118.23.784.784,0,0,1-.118.28q-.526.973-1,1.94c-.318.646-.616,1.309-.9,1.987q-.9,1.937-1.628,3.845t-1.38,3.736l-.277.914a6.391,6.391,0,0,0-.327.864l-.277.914a1.842,1.842,0,0,0-.139.407,3.505,3.505,0,0,1-.139.457,1.846,1.846,0,0,0-.139.407,3.643,3.643,0,0,1-.139.457,3.093,3.093,0,0,0-.23.811c-.062.2-.109.339-.139.407a1.577,1.577,0,0,0-.088.454,3.093,3.093,0,0,0-.23.811c-.153.54-.289,1.073-.407,1.6s-.221,1.038-.31,1.542q-.181.761-.31,1.492c-.086.489-.156.97-.212,1.439a2.98,2.98,0,0,1-.08.708,2.591,2.591,0,0,1-.015.354,2.177,2.177,0,0,0-.015.354.339.339,0,0,1-.021.15.307.307,0,0,0-.021.15l.009.351a.7.7,0,0,0-.041.3l.009.3a11.425,11.425,0,0,0,.018,2.415c.012.369.035.719.08,1.056a7.538,7.538,0,0,0,.177.949,6.157,6.157,0,0,0,.5,1.645,2.731,2.731,0,0,0,.295.7c.124.2.236.377.342.543a2.917,2.917,0,0,0,.313.392.763.763,0,0,0,.156.2l.053.05.1.1c.035.032.053.056.053.074s.018.041.053.074a.274.274,0,0,1,.153.1l.1.047.1.1a.15.15,0,0,0,.1.047l.05.05a4.162,4.162,0,0,1-1.038-1.179,4.039,4.039,0,0,1-.348-.719c-.091-.248-.174-.507-.248-.772a11.854,11.854,0,0,1-.348-1.6,1.06,1.06,0,0,0-.062-.4l-.006-.251-.006-.2a1.379,1.379,0,0,0-.062-.4l-.012-.451a.682.682,0,0,1,.021-.2.946.946,0,0,0,.021-.2l-.012-.451c0-.136-.009-.268-.012-.4a2.356,2.356,0,0,1,.038-.454,1.319,1.319,0,0,1,.038-.4,1.466,1.466,0,0,1,.038-.454,3.18,3.18,0,0,1,.012-.427c.012-.118.035-.262.065-.43q.075-.858.2-1.743a15.249,15.249,0,0,1,.354-1.745q.354-1.769.784-3.467t.938-3.32c.029-.168.059-.313.088-.43a2.03,2.03,0,0,1,.142-.38,4.361,4.361,0,0,0,.139-.431c.029-.118.059-.262.088-.43C112.738,373.293,112.909,372.768,113.03,372.293Zm10.573,9.314a.805.805,0,0,0-.112-.348,11.5,11.5,0,0,0-1.123-2.382,6.082,6.082,0,0,0-.551-.79,6.7,6.7,0,0,0-.492-.54c-.071-.065-.121-.1-.153-.1l-.1-.1-.053-.05a.15.15,0,0,0-.1-.047l-.1-.1h-.05a1.2,1.2,0,0,1,.307.192l.1.1.1.1a.311.311,0,0,1,.106.147l.1.1a.98.98,0,0,0,.209.245,4.623,4.623,0,0,1,.634,1.088,14.312,14.312,0,0,1,.917,2.188.363.363,0,0,0,.03.15.363.363,0,0,1,.029.15.437.437,0,0,1,.056.15.379.379,0,0,0,.053.15c.035.1.091.283.165.548a1.972,1.972,0,0,1,.142.525,2.441,2.441,0,0,0,.142.575c.112.366.221.716.33,1.047a9.729,9.729,0,0,1,.28,1.05q.332.995.684,1.943t.728,1.79a20.258,20.258,0,0,0,1.642,3.022,10.1,10.1,0,0,0,1.819,2.111,8.932,8.932,0,0,0,1.743,1.159l.053.05c.068,0,.1.015.1.047a.205.205,0,0,1,.127.021.114.114,0,0,0,.077.024l.307.142a.2.2,0,0,1,.153.047l.15,0a.138.138,0,0,0,.1.047.193.193,0,0,1,.153.047l.15,0a.212.212,0,0,0,.153.047l.1,0a6.039,6.039,0,0,1-1.628-.607c-.139-.1-.265-.186-.383-.265s-.248-.168-.383-.265a3.207,3.207,0,0,1-.36-.292,3.493,3.493,0,0,0-.36-.292,11.72,11.72,0,0,1-1.224-1.474q-.548-.792-1.026-1.63a22.535,22.535,0,0,1-1.607-3.526c-.251-.563-.478-1.135-.675-1.716s-.392-1.156-.575-1.719c-.074-.265-.159-.531-.248-.8s-.174-.531-.248-.8c-.038-.165-.077-.307-.112-.425s-.074-.242-.112-.374a1.22,1.22,0,0,1-.08-.174C123.665,381.731,123.638,381.672,123.6,381.608Zm3.1-9.444a15.439,15.439,0,0,0,5.269-4.072,20.762,20.762,0,0,0,2.937-4.709,19.7,19.7,0,0,0,1.557-5.475,22.3,22.3,0,0,1-2.542,6.26,31.5,31.5,0,0,1-3.246,4.467A25.234,25.234,0,0,1,126.707,372.164Z" transform="translate(-96.555 -345.451)"></path>
        <path id="Trazado_7816" data-name="Trazado 7816" d="M226.147,406.462c.094-.271.186-.548.277-.837s.168-.534.23-.737c.094-.236.189-.475.283-.714a2.561,2.561,0,0,1,.383-.714.73.73,0,0,1,.846-.274,2.841,2.841,0,0,1,.814.3,3.4,3.4,0,0,1,.952.752,2.753,2.753,0,0,1,.613,1.291,4,4,0,0,1-.147,1.917c-.218.643-.442,1.288-.675,1.931s-.46,1.271-.678,1.881a26.273,26.273,0,0,0-1.179,4.561c-.139,1.076-.071,1.713.2,1.9h.05a.676.676,0,0,1,.31.292.864.864,0,0,1,.024.8,1.3,1.3,0,0,1-.516.466,2.687,2.687,0,0,1-.823.3,2.475,2.475,0,0,1-.932,0,2.2,2.2,0,0,1-.89-.377,1.107,1.107,0,0,1-.386-.315,1.955,1.955,0,0,1-.289-.469,2.6,2.6,0,0,1-.265-.545,4.533,4.533,0,0,1-.248-.8c-.059-.265-.106-.5-.144-.7a2.242,2.242,0,0,1-.018-.655,9.628,9.628,0,0,1,.195-2.017q.217-1.163.537-2.406c.212-.828.448-1.663.711-2.509S225.9,407.172,226.147,406.462Zm.419,2.3c.245-.843.466-1.572.669-2.182a15.98,15.98,0,0,0,.478-1.775,41.368,41.368,0,0,0-1.5,4.016q-.509,1.623-.885,3.394a7.55,7.55,0,0,0-.144,2.972q.172-.96.345-2.023c.118-.607.257-1.288.422-2.049S226.318,409.575,226.565,408.764Zm7.038-12.723a1.29,1.29,0,0,1,.669.587,1.038,1.038,0,0,1,.071.7,1.647,1.647,0,0,1-.236.56,1.607,1.607,0,0,1-.195.256,10.349,10.349,0,0,0-1.159,1.719q-.478.893-.716,1.353-.1.155-.265.46a3.474,3.474,0,0,1-.41.59,2.373,2.373,0,0,1-.54.469.8.8,0,0,1-.652.094,3.593,3.593,0,0,1-1.389-1.067.89.89,0,0,1-.142-.6,6.784,6.784,0,0,1,.233-1.542,3.546,3.546,0,0,1,.139-.43,5.77,5.77,0,0,1,.159-.607,3.933,3.933,0,0,1,.165-.407,3.254,3.254,0,0,1,.817-1.38,3.531,3.531,0,0,1,1.162-.761,2.88,2.88,0,0,1,1.227-.209A2.993,2.993,0,0,1,233.6,396.042Zm-4.293,4.747a8.585,8.585,0,0,1,.684-1.654q.407-.739.793-1.306.433-.615.873-1.132a1.653,1.653,0,0,0-1.135.787,7.853,7.853,0,0,0-.716,1.377A11.27,11.27,0,0,0,229.31,400.789Z" transform="translate(-186.369 -380.973)"></path>
        <path id="Trazado_7817" data-name="Trazado 7817" d="M274.756,354.189a1.3,1.3,0,0,1,.852.755,1.365,1.365,0,0,1,.05.929,1.841,1.841,0,0,1-.386.613,1.111,1.111,0,0,1-.245.209,10.249,10.249,0,0,0-1.094,1.362c-.307.46-.587.882-.846,1.256a7.951,7.951,0,0,0-.716,1.377q-1.1,2.247-2.273,5.068t-2.3,5.873q-1.123,3.047-2.167,6.147t-1.922,5.888a28.215,28.215,0,0,0-.749,2.889c-.192.944-.327,1.8-.407,2.577a10.08,10.08,0,0,0-.047,1.914c.047.5.156.8.327.9a1.24,1.24,0,0,0,.657.156,1.051,1.051,0,0,0,.448-.162c.13-.088.271-.177.419-.262a1.07,1.07,0,0,1,.525-.142c.333-.009.54.1.613.336a.623.623,0,0,1,.009.351,1.89,1.89,0,0,1-.554.87,2.932,2.932,0,0,1-1.816.7,5.2,5.2,0,0,1-1.132-.068,2.792,2.792,0,0,1-.84-.327,3.171,3.171,0,0,1-1.286-1.047,4.692,4.692,0,0,1-.7-1.465,7.915,7.915,0,0,1-.274-1.678,10.267,10.267,0,0,1,.03-1.636c.024-.336.056-.646.1-.935a7.9,7.9,0,0,1,.153-.784c.059-.268.118-.507.18-.711.059-.236.121-.463.183-.684s.121-.448.183-.684q-.827,1.079-1.775,2.161a22.94,22.94,0,0,1-1.908,1.94,14.354,14.354,0,0,1-1.822,1.409,3.145,3.145,0,0,1-1.569.572,2.862,2.862,0,0,1-2.35-1.268,4.353,4.353,0,0,1-.743-3.173,16.128,16.128,0,0,1,.764-3.291,32.8,32.8,0,0,1,1.5-3.739q.9-1.911,1.984-3.727a24.276,24.276,0,0,1,2.226-3.181,11.527,11.527,0,0,1,2.256-2.126,2.909,2.909,0,0,1,2.02-.634,4.35,4.35,0,0,1,2.214.944,5.192,5.192,0,0,1,1.277,1.574q.982-2.693,1.919-5.16t1.737-4.426q.8-1.959,1.342-3.308t.778-1.858a3.962,3.962,0,0,1,1.088-1.566,3.656,3.656,0,0,1,1.412-.743,4.913,4.913,0,0,1,1.454-.168A6.233,6.233,0,0,1,274.756,354.189Zm-23.142,34.146a7.605,7.605,0,0,1-.18-2.813,16.49,16.49,0,0,1,.734-3.441,23.217,23.217,0,0,1,2.205-4.738A40.121,40.121,0,0,1,257.7,372.2a5.31,5.31,0,0,1,2.907-2.117,1.267,1.267,0,0,0-.711-.183,2.142,2.142,0,0,0-.873.274,4.787,4.787,0,0,0-1.206.991,20.369,20.369,0,0,0-1.336,1.672q-.9,1.207-1.908,2.819t-1.94,3.473a23.171,23.171,0,0,0-1.46,3.612,10.77,10.77,0,0,0-.513,3.234A3.174,3.174,0,0,0,251.613,388.335Zm2.412-1.928c.236.027.655-.227,1.262-.764a24.514,24.514,0,0,0,2.029-2.07q1.123-1.265,2.261-2.78a25.53,25.53,0,0,0,1.9-2.9q.372-1.017.722-2.082c.233-.711.472-1.4.722-2.082a1.433,1.433,0,0,1-.115-.525.605.605,0,0,0-.265-.472.749.749,0,0,0-.484-.162,1.388,1.388,0,0,0-.8.3,7.381,7.381,0,0,0-1.153,1.038,20.068,20.068,0,0,0-1.6,2,30.576,30.576,0,0,0-1.9,3.072q-.982,1.791-1.689,3.417a18.654,18.654,0,0,0-1,2.8C253.718,385.982,253.757,386.383,254.025,386.407Zm10.337-11.655q1.4-3.861,2.71-7.421.562-1.473,1.147-3.025c.389-1.032.773-2.034,1.15-3s.734-1.858,1.082-2.671.646-1.492.9-2.037a31.591,31.591,0,0,0-2.539,4.547q-1.092,2.3-2.306,5.673A57.75,57.75,0,0,0,264.362,374.751Z" transform="translate(-204.426 -351.486)"></path>
        <path id="Trazado_7818" data-name="Trazado 7818" d="M323.492,419.032c.369.024.587.345.655.961a4.982,4.982,0,0,1-.221,1.993,10.053,10.053,0,0,1-1.07,2.217,8.039,8.039,0,0,1-4.234,3.311,8.287,8.287,0,0,1-3.184.392,6.081,6.081,0,0,1-2.943-.923,6.246,6.246,0,0,1-1.943-2.085,6.93,6.93,0,0,1-.693-4.081,13.241,13.241,0,0,1,.708-3.491,16.358,16.358,0,0,1,1.592-3.287,13.73,13.73,0,0,1,3.049-3.379,13.408,13.408,0,0,1,1.925-1.262,9.156,9.156,0,0,1,1.843-.681,3.178,3.178,0,0,1,3.727,2.034,3.741,3.741,0,0,1-.086,2.368c-.159.374-.372.823-.643,1.35a7.072,7.072,0,0,1-1.262,1.669,11.663,11.663,0,0,1-2.341,1.775,17.165,17.165,0,0,1-3.827,1.616,12.591,12.591,0,0,0-.672,2.937,6.244,6.244,0,0,0,.236,2.182,2.086,2.086,0,0,0,1.572,1.389,3.356,3.356,0,0,0,2.288-.065,5.954,5.954,0,0,0,1.925-1.262,8.142,8.142,0,0,0,1.457-1.9,10.364,10.364,0,0,0,.876-1.987c.062-.136.133-.307.212-.51a4.567,4.567,0,0,1,.286-.613,1.936,1.936,0,0,1,.363-.486A.666.666,0,0,1,323.492,419.032Zm-12.537,1.457a17.94,17.94,0,0,1,1.123-2.948,24.366,24.366,0,0,1,1.56-2.71,12.777,12.777,0,0,1,2.317-2.63,9.86,9.86,0,0,1,3.087-2,3.133,3.133,0,0,1,1.881-.153,5.84,5.84,0,0,0-.463-.389,2.147,2.147,0,0,0-1.513-.159,5.52,5.52,0,0,0-1.713.852,12.823,12.823,0,0,0-2.332,2.076,16.681,16.681,0,0,0-2.3,3.358A18.232,18.232,0,0,0,310.955,420.488Zm8.934-6.186a1.919,1.919,0,0,0,.354-.814.837.837,0,0,0-.118-.652.712.712,0,0,0-.634-.233,2.243,2.243,0,0,0-1.094.433,6.094,6.094,0,0,0-1.25,1.117,12.382,12.382,0,0,0-1.044,1.362q-.433.668-.7,1.153c-.177.324-.23.484-.162.484a3.366,3.366,0,0,0,1.073-.28,7.308,7.308,0,0,0,1.339-.716q.668-.447,1.283-.941A7.227,7.227,0,0,0,319.889,414.3Z" transform="translate(-246.943 -389.993)"></path>
        <path id="Trazado_7819" data-name="Trazado 7819" d="M366.981,381.973a2.872,2.872,0,0,0,.655.006,3.659,3.659,0,0,0,.5-.088,1.557,1.557,0,0,1,.4-.062,2.337,2.337,0,0,1,.475-.139,1.748,1.748,0,0,1,.781,0,2.818,2.818,0,0,1,.687.283,1.693,1.693,0,0,1,.6.687,2.464,2.464,0,0,1,.386,1.247,5.238,5.238,0,0,1-.115,1.262,7.525,7.525,0,0,1-.321,1.091c-.124.321-.2.534-.233.637q-.8,1.884-1.922,4.128t-1.967,4.331a16.009,16.009,0,0,0-1.079,3.7,2.035,2.035,0,0,0,.793,2.241.627.627,0,0,0,.153.1.481.481,0,0,1,.159.348.948.948,0,0,1-.265.433,1.331,1.331,0,0,1-.669.345,2.589,2.589,0,0,1-1.666-.23,3.36,3.36,0,0,1-1.445-1.342,5.587,5.587,0,0,1-.722-2.421,8.229,8.229,0,0,1,.557-3.462,29.678,29.678,0,0,1,1.436-3.485q.831-1.707,1.625-3.114t1.415-2.4c.416-.666.69-1.135.817-1.406.192-.374.192-.666,0-.882a1.358,1.358,0,0,0-1.138-.245,1.708,1.708,0,0,1-.858-.077q-1.11,1.641-2.253,3.081t-2.114,2.624a.849.849,0,0,1-.3.186c-.133.053-.206-.136-.218-.572a4.416,4.416,0,0,1,.215-1.339c.153-.525.277-.92.368-1.191a.156.156,0,0,1,.047-.1l.094-.2q.535-.566,1.12-1.288t1.262-1.6a2.1,2.1,0,0,1-1.3-1.524,5.247,5.247,0,0,1,.062-2.315,10.024,10.024,0,0,1,.985-2.542,10.4,10.4,0,0,1,1.548-2.182,5.048,5.048,0,0,1,1.725-1.256,1.262,1.262,0,0,1,1.492.286,2.567,2.567,0,0,1,.722,1.566,5.594,5.594,0,0,1-.195,2.043,12.227,12.227,0,0,1-.914,2.338Q367.75,380.692,366.981,381.973Zm-1.825,10.314q.517-1.269,1.135-2.547t1.285-2.651a28.5,28.5,0,0,0-2.12,3.379,29.382,29.382,0,0,0-1.539,3.464,15.514,15.514,0,0,0-.923,3.9q.279-.814.6-1.728c.186-.507.413-1.094.681-1.754S364.84,393,365.156,392.287Zm.59-11.334a21.753,21.753,0,0,0,1.176-1.993,7.36,7.36,0,0,0,.678-1.781c.147-.675.115-.958-.1-.852a2.311,2.311,0,0,0-.755.9,10.387,10.387,0,0,0-.8,1.807A3.591,3.591,0,0,0,365.745,380.953Z" transform="translate(-283.122 -364.961)"></path>
        <path id="Trazado_7820" data-name="Trazado 7820" d="M403.3,388.518a2.489,2.489,0,0,1,1.672,1.312,6,6,0,0,1,.625,2.574,14.168,14.168,0,0,1-.33,3.456,27.642,27.642,0,0,1-1.123,3.9,30.323,30.323,0,0,1-1.751,3.9,22.689,22.689,0,0,1-2.267,3.458,15.654,15.654,0,0,1-2.618,2.612,6.824,6.824,0,0,1-2.828,1.362,3.624,3.624,0,0,1-1.51-.059,2.717,2.717,0,0,1-1.047-.525,1.686,1.686,0,0,1-.516-1.345,3.054,3.054,0,0,1,.124-1.008,1.748,1.748,0,0,1,.333-.714.792.792,0,0,1,.8-.224,2.2,2.2,0,0,0,1.395-.542,10.3,10.3,0,0,0,2.105-2.07,25.3,25.3,0,0,0,2.435-3.765,35.415,35.415,0,0,0,2.382-5.626,8.219,8.219,0,0,0,.315-1.265,2.353,2.353,0,0,0,.027-.831.466.466,0,0,0-.466-.416q-.354.009-1.427,1.1a30.174,30.174,0,0,0-2.506,2.987q-1.433,1.9-3.046,4.437t-3.119,5.343q-1.5,2.808-2.73,5.761a32.1,32.1,0,0,0-1.8,5.685c-.056.472-.106,1.05-.153,1.74a11.38,11.38,0,0,0,.059,2.138,1.119,1.119,0,0,1,.059.351,4.529,4.529,0,0,1-.08.708,1.464,1.464,0,0,1-.607.722,1.118,1.118,0,0,1-1.079.08,4.917,4.917,0,0,1-1.047-.548,4.1,4.1,0,0,1-.982-.952,4.162,4.162,0,0,1-.669-1.439,5.618,5.618,0,0,1-.106-2.008q.119-1.061.675-3.715t1.589-6.18q1.035-3.525,2.556-7.516a63.96,63.96,0,0,1,3.579-7.772c.224-.374.448-.734.675-1.076a9.439,9.439,0,0,1,.631-.8,1.539,1.539,0,0,1,.74-.5,3.269,3.269,0,0,1,1.1-.257,2.2,2.2,0,0,1,1.035.147.761.761,0,0,1,.472.69,2.432,2.432,0,0,1-.54,1.374,31.018,31.018,0,0,0-2.329,4.818,86.836,86.836,0,0,0-2.839,8.253q.858-1.734,1.931-3.777t2.276-4.087q1.2-2.043,2.506-3.942a29.38,29.38,0,0,1,2.6-3.293,11.806,11.806,0,0,1,2.53-2.132A3.118,3.118,0,0,1,403.3,388.518Zm-18.507,21.795q.969-3.144,2.138-6.3.982-2.693,2.253-5.773a59.371,59.371,0,0,1,2.659-5.634,27.281,27.281,0,0,0-2.592,4.449q-1.1,2.247-2.312,5.522A55.187,55.187,0,0,0,384.793,410.313Zm15.2-5a20.276,20.276,0,0,0,3.146-5.346,22.741,22.741,0,0,0,1.256-4.588,15.293,15.293,0,0,0,.026-4.429,29.011,29.011,0,0,1-.843,5.835,35.22,35.22,0,0,1-1.483,4.544A23.893,23.893,0,0,1,400,405.309Z" transform="translate(-297.679 -375.784)"></path>
        <path id="Trazado_7821" data-name="Trazado 7821" d="M472.3,409.867a4.487,4.487,0,0,1-.2,1.79c-.186.557-.451,1.229-.8,2.011a20.928,20.928,0,0,0-1.353,3.809c-.177.879-.13,1.395.145,1.557a.465.465,0,0,1,.127.021.365.365,0,0,0,.127.021,1.739,1.739,0,0,1,.277.018.976.976,0,0,1,.433.215.607.607,0,0,1,.313.419.854.854,0,0,1-.183.634,2.407,2.407,0,0,1-2.093.687,3.447,3.447,0,0,1-1.834-.879,2.946,2.946,0,0,1-.749-1.639,14.53,14.53,0,0,1-.142-1.5q-.88.982-1.831,1.964t-1.863,1.763a10.88,10.88,0,0,1-1.775,1.256,3.452,3.452,0,0,1-1.521.5,2.621,2.621,0,0,1-2.294-1.067,4.34,4.34,0,0,1-.784-2.822,11.506,11.506,0,0,1,.584-3.438,21.36,21.36,0,0,1,1.533-3.615,28.154,28.154,0,0,1,2.144-3.406,21.3,21.3,0,0,1,2.435-2.81,11.393,11.393,0,0,1,2.438-1.828,3.492,3.492,0,0,1,2.1-.51,4.616,4.616,0,0,1,2.341.941,4.288,4.288,0,0,1,1.224,1.524,2.691,2.691,0,0,1,.265,1.427c-.056.422-.233.652-.534.693a.75.75,0,0,1-.554-.059.589.589,0,0,1-.209-.295c-.038-.115-.074-.233-.109-.348a.777.777,0,0,0-.209-.321.656.656,0,0,0-.481-.139,1.963,1.963,0,0,0-.823.274,5.861,5.861,0,0,0-1.182.914,19.515,19.515,0,0,0-1.61,1.781,25.875,25.875,0,0,0-1.958,2.822q-1.035,1.69-1.819,3.3a22.31,22.31,0,0,0-1.156,2.748q-.372,1.141.032,1.182c.168.03.466-.112.893-.428a14.805,14.805,0,0,0,1.474-1.274c.554-.534,1.15-1.147,1.784-1.834s1.253-1.392,1.852-2.114a25.774,25.774,0,0,0,1.6-2.132,14.6,14.6,0,0,0,1.079-1.866,1.251,1.251,0,0,0,.012-.427,3.147,3.147,0,0,1-.038-.428.315.315,0,0,1-.006-.251c-.006-.168.109-.321.339-.463a2.361,2.361,0,0,1,.775-.2,1.5,1.5,0,0,1,.808.153,1.612,1.612,0,0,1,.646.61A2.439,2.439,0,0,1,472.3,409.867Zm-14.657,10.116a10.188,10.188,0,0,1,.386-2.427,26.255,26.255,0,0,1,1.026-2.9,32.848,32.848,0,0,1,2.049-4.031,17.55,17.55,0,0,1,2.592-3.544,11.726,11.726,0,0,1,2.238-1.822,5.567,5.567,0,0,1,2.141-.814q-.106-.2-.761-.257a3.35,3.35,0,0,0-1.7.475,10.462,10.462,0,0,0-2.388,1.852,17.427,17.427,0,0,0-2.783,3.874,24.3,24.3,0,0,0-2.09,4.361,17.751,17.751,0,0,0-.772,2.963A6.369,6.369,0,0,0,457.648,419.983Z" transform="translate(-350.227 -386.023)"></path>
        <path id="Trazado_7822" data-name="Trazado 7822" d="M526.284,352.529c-.13.171-.259.36-.386.563-.1.171-.2.366-.31.587s-.215.451-.307.687a44.868,44.868,0,0,1,13.1.84,3.685,3.685,0,0,1,.914.277,2.228,2.228,0,0,1,.613.36.508.508,0,0,1,.215.472.61.61,0,0,1-.265.36.983.983,0,0,1-.728.071q-2.118-.141-4.582-.124-2.114.009-4.924.212a48.483,48.483,0,0,0-6.012.846q-1.941,4.281-3.408,8.495t-2.427,7.713q-.96,3.5-1.421,5.873a19.694,19.694,0,0,0-.445,2.981,2.031,2.031,0,0,1-.289,1.392.733.733,0,0,1-.722.248,2.1,2.1,0,0,1-.87-.478,5.382,5.382,0,0,1-.775-.784,1.454,1.454,0,0,1-.324-.8,5.636,5.636,0,0,1-.029-1.056,10.418,10.418,0,0,1,.165-1.312q.385-2.477,1.035-5.236t1.48-5.525q.827-2.764,1.734-5.431t1.745-5l-.7.221c-.233.074-.483.147-.749.221a9.255,9.255,0,0,1-1.651.348,2.229,2.229,0,0,1-1.035-.1q-.433-.164-.3-.823a5.722,5.722,0,0,1,1.112-1.639,7.5,7.5,0,0,1,1.675-1.28,6.927,6.927,0,0,1,2.645-.8,1.354,1.354,0,0,0,.277-.032,1.407,1.407,0,0,1,.224-.032q.7-1.778,1.2-2.975c.33-.8.572-1.383.731-1.757a3.76,3.76,0,0,1,2.553-2.309,4.913,4.913,0,0,1,1.454-.168,5.661,5.661,0,0,1,1.212.168,1.29,1.29,0,0,1,.8.758,1.365,1.365,0,0,1,.05.929,1.839,1.839,0,0,1-.386.613,1.112,1.112,0,0,1-.245.209A14.056,14.056,0,0,0,526.284,352.529Zm-10.225,19.3q.5-1.774.961-3.346t.943-3.1q.487-1.521.946-3.046t.967-3.2q-1.5,3.817-2.707,7.572-.509,1.623-1.011,3.373t-.935,3.5q-.429,1.747-.708,3.441t-.389,3.155q.221-1.163.534-2.53c.145-.775.339-1.669.578-2.683S515.755,372.912,516.059,371.827Zm9.612-23.3a1.992,1.992,0,0,0-1.347.366,2.972,2.972,0,0,0-.731.8,4.8,4.8,0,0,0-.419,1.168,4.912,4.912,0,0,1,.752-.976,9.29,9.29,0,0,1,.811-.728A5.4,5.4,0,0,1,525.671,348.523Z" transform="translate(-390.13 -346.987)"></path>
        <path id="Trazado_7823" data-name="Trazado 7823" d="M548.328,352.032a10.829,10.829,0,0,1,1.483-2.707,7.006,7.006,0,0,1,1.813-1.687,3.041,3.041,0,0,1,2.506-.348,2.642,2.642,0,0,1,1.073.575,3.948,3.948,0,0,1,.758,1.061,4.145,4.145,0,0,1,.377,1.775c-.024.4-.068.858-.139,1.362a16.588,16.588,0,0,1-.33,1.669,24.059,24.059,0,0,1-1.356,3.635,32.436,32.436,0,0,1-2.105,3.857,28.085,28.085,0,0,1-2.668,3.547,15.013,15.013,0,0,1-3.093,2.7q-.787,2.437-1.383,4.514t-1,3.75q.765-1.429,1.846-3.246a31.361,31.361,0,0,1,2.32-3.385,16.043,16.043,0,0,1,2.542-2.612,4,4,0,0,1,2.512-1.026,2.105,2.105,0,0,1,1.583.811,3.844,3.844,0,0,1,.56,2,11.148,11.148,0,0,1-.8,3.945q-.416,1.269-.982,2.668t-.982,2.668a27.682,27.682,0,0,0-1.179,4.611q-.208,1.614.2,1.855a.15.15,0,0,0,.1.047.72.72,0,0,1,.377-.012,1.026,1.026,0,0,1,.487.289,1.048,1.048,0,0,1,.289.469.884.884,0,0,1-.156.684,1.764,1.764,0,0,1-.961.731,2.6,2.6,0,0,1-1.129.083,3.489,3.489,0,0,1-1.067-.348,2.481,2.481,0,0,1-.823-.655,2.661,2.661,0,0,1-.563-1.218,8.125,8.125,0,0,1-.165-1.38,12.757,12.757,0,0,1,.056-1.56,27.363,27.363,0,0,1,1.008-5.26q.734-2.437,1.35-3.913c.407-.985.69-1.722.843-2.211s.162-.817.024-.982a.269.269,0,0,0-.3-.018,1.518,1.518,0,0,0-.4.239c-.13.139-.295.295-.489.466a19.97,19.97,0,0,0-2.379,3.01q-1.207,1.822-2.214,3.582t-1.672,3.14q-.668,1.375-.761,1.58a.71.71,0,0,1-.463.543,1.084,1.084,0,0,1-.708-.08,2.785,2.785,0,0,1-.743-.484,4.327,4.327,0,0,1-.622-.66,1.453,1.453,0,0,1-.324-.8,5.641,5.641,0,0,1-.03-1.056,10.452,10.452,0,0,1,.165-1.312q.3-1.973.743-4t.994-4.051c.091-.372.174-.675.251-.911s.144-.475.206-.711q.69-2.331,1.433-4.544t1.468-4.166c.484-1.3.952-2.518,1.406-3.635S547.983,352.846,548.328,352.032Zm1.265.215q-.863,1.583-1.713,3.467-.708,1.632-1.48,3.712a31.066,31.066,0,0,0-1.259,4.411q.8-2.083,1.645-4.119.7-1.778,1.48-3.762T549.593,352.247Zm2.559,1.539q-1.19,2.4-2.25,4.942t-1.993,5.136a24.922,24.922,0,0,0,2.642-3.594,30.294,30.294,0,0,0,2.589-5.5,14.268,14.268,0,0,0,.846-2.085,7.2,7.2,0,0,0,.289-1.342c.038-.386-.088-.492-.386-.315a2.67,2.67,0,0,0-.345.313,17.269,17.269,0,0,0-1.008,1.689C552.406,353.294,552.279,353.548,552.152,353.787Zm1.221,18.528q-.376,1.017-.578,1.8a13.68,13.68,0,0,0-.289,1.342,9.261,9.261,0,0,0-.168,1.162,25.37,25.37,0,0,1,.976-2.9q.61-1.526,1.117-3.249a6.433,6.433,0,0,0,.239-1.389,2.8,2.8,0,0,0-.1-.879,1.28,1.28,0,0,0-.318-.6,5.952,5.952,0,0,1-.115,2.141Q553.88,370.739,553.373,372.315Z" transform="translate(-409.564 -346.663)"></path>
      </g>
    </g>
  </g>
</svg>